<svg width="181" height="181" viewBox="0 0 181 181" fill="none" xmlns="http://www.w3.org/2000/svg">
<path d="M180.7 90.9C180.7 140.7 139.6 180.4 90.4 180.4C40.9 180.4 0.900024 140.4 0.900024 90.9C0.900024 41.8 40.5 0.599976 90.4 0.599976C127.1 0.599976 159.6 23.2 173.5 55.9C178.3 67 180.7 78.8 180.7 90.9Z" fill="#72286E"/>
<path fill-rule="evenodd" clip-rule="evenodd" d="M150.6 63.7V131C150.6 139.2 143.9 145.9 135.6 145.9H45.9C37.7 145.9 31 139.2 31 131V63.7C31 55.4 37.7 48.7 45.9 48.7H68.4V41.3C68.4 37.1 71.7001 33.8 75.8 33.8H105.7C109.9 33.8 113.2 37.1 113.2 41.3V48.7H135.6C143.9 48.7 150.6 55.4 150.6 63.7ZM75.8 48.7H105.7V43.5C105.7 41.4 104.1 41.3 102 41.3H79.6C77.5 41.3 75.8 41.4 75.8 43.5V48.7ZM143.1 89.8H103.2V98.6C103.2 102.6 99.9 105.9 95.9 105.9H85.7C81.7 105.9 78.4 102.6 78.4 98.6V89.8H38.5V130.9C38.5 135.1 41.8 138.4 45.9 138.4H135.6C139.8 138.4 143.1 135.1 143.1 130.9V89.8ZM143.1 63.7C143.1 59.5 139.8 56.2 135.6 56.2H45.9C41.8 56.2 38.5 59.5 38.5 63.7V82.3H78.4V81.1C78.4 77 81.7 73.7 85.7 73.7H95.9C99.9 73.7 103.2 77 103.2 81.1V82.3H143.1V63.7Z" fill="#C3996B"/>
</svg>
