<?xml version="1.0" standalone="no"?>
<!DOCTYPE svg PUBLIC "-//W3C//DTD SVG 20010904//EN"
 "http://www.w3.org/TR/2001/REC-SVG-20010904/DTD/svg10.dtd">
<svg version="1.0" xmlns="http://www.w3.org/2000/svg"
 width="1024.000000pt" height="1024.000000pt" viewBox="0 0 1024.000000 1024.000000"
 preserveAspectRatio="xMidYMid meet">

<g transform="translate(0.000000,1024.000000) scale(0.100000,-0.100000)"
fill="#72286E" stroke="none">
<path d="M4769 8546 c-8 -18 -5 -61 12 -177 28 -192 31 -420 6 -555 -33 -182
-147 -444 -192 -444 -15 0 -30 45 -40 127 -4 31 -14 58 -26 69 -18 16 -22 15
-83 -15 -82 -40 -192 -142 -255 -236 -151 -226 -168 -488 -50 -743 88 -191
232 -337 421 -427 82 -40 108 -43 131 -17 23 25 22 34 -10 95 -20 40 -27 71
-31 134 -4 75 -2 87 26 146 16 36 54 100 82 143 54 78 130 230 130 256 0 8 5
29 11 47 l11 32 25 -23 c56 -52 77 -105 81 -206 4 -84 7 -95 28 -108 30 -20
52 -8 105 58 79 101 126 226 136 370 3 48 9 88 12 88 18 0 113 -97 149 -152
78 -120 107 -234 107 -418 -1 -108 -6 -163 -29 -273 -29 -145 -28 -159 15
-172 44 -14 220 106 340 232 168 176 262 379 284 619 23 236 -113 589 -315
817 -69 78 -105 61 -120 -56 -5 -43 -18 -98 -29 -122 -18 -40 -95 -135 -110
-135 -3 0 -5 48 -3 108 7 219 -67 414 -226 593 -122 138 -240 225 -427 316
-124 59 -150 64 -166 29z m330 -243 c203 -145 335 -330 375 -525 20 -99 20
-169 -1 -286 l-17 -95 24 -19 c27 -22 48 -19 125 16 94 43 156 114 199 228
l24 62 45 -71 c141 -220 210 -457 187 -645 -22 -186 -95 -341 -233 -500 -50
-59 -185 -173 -194 -164 -2 2 1 43 8 92 17 127 6 368 -20 469 -50 192 -156
336 -300 408 -83 42 -110 45 -135 18 -15 -16 -15 -27 -6 -90 14 -87 1 -211
-31 -293 -20 -54 -39 -75 -39 -45 0 6 -11 35 -24 63 -72 155 -265 260 -266
144 -1 -100 -62 -249 -178 -432 -82 -130 -97 -174 -96 -280 1 -49 -1 -88 -5
-88 -3 0 -37 23 -75 52 -86 64 -174 175 -226 281 -137 285 -77 588 158 790 49
42 62 46 62 16 0 -11 11 -44 25 -74 19 -39 35 -57 61 -70 33 -16 37 -15 77 4
73 36 171 194 226 366 66 206 76 429 34 749 l-6 49 79 -42 c43 -24 108 -63
143 -88z"/>
<path d="M2852 6004 c-21 -15 -22 -21 -22 -179 0 -199 -3 -195 132 -195 l87 0
11 -57 c38 -188 85 -325 174 -508 133 -271 288 -473 516 -674 82 -72 217 -172
293 -215 26 -16 47 -31 47 -36 0 -4 -40 -171 -89 -371 -49 -200 -126 -512
-170 -694 -45 -181 -86 -349 -92 -372 -10 -38 -15 -42 -56 -53 -118 -29 -243
-122 -307 -229 -147 -243 -49 -570 209 -697 123 -60 258 -68 382 -22 342 126
440 528 198 805 -44 50 -53 75 -37 101 7 10 212 12 996 10 l987 -3 85 -335
c93 -370 114 -424 183 -474 37 -27 51 -31 105 -31 102 0 176 65 191 166 9 59
-31 229 -275 1179 -102 401 -249 982 -252 1004 -2 14 17 31 74 67 236 147 490
391 640 617 141 213 241 440 300 686 l33 136 85 0 c133 0 130 -4 130 195 0
158 -1 164 -22 179 -20 14 -252 16 -2268 16 -2016 0 -2248 -2 -2268 -16z
m4458 -179 l0 -85 -2190 0 -2190 0 0 85 0 85 2190 0 2190 0 0 -85z m-241 -280
c-54 -250 -186 -537 -346 -753 -404 -546 -1062 -850 -1737 -802 -354 26 -676
132 -956 317 -439 290 -759 756 -863 1256 l-15 67 1968 0 1968 0 -19 -85z
m-2772 -1497 l71 -33 -73 -295 c-218 -886 -285 -1163 -285 -1183 0 -14 23 -44
60 -80 233 -228 130 -602 -187 -673 -89 -20 -158 -12 -246 29 -218 100 -295
382 -158 581 57 83 163 150 256 163 26 3 55 13 66 22 14 12 41 110 109 386 50
204 132 540 183 748 105 431 81 392 204 335z m1753 36 c0 -6 81 -329 401
-1590 65 -260 119 -490 119 -512 0 -103 -127 -136 -174 -44 -18 35 -67 205
-101 352 -14 63 -116 474 -226 912 -109 438 -199 801 -199 806 0 5 37 25 83
45 85 38 97 41 97 31z m-1475 -133 c357 -95 804 -90 1140 13 27 8 51 14 53 12
4 -5 242 -948 242 -963 0 -10 -185 -13 -890 -13 -628 0 -890 3 -890 11 0 10
59 256 182 757 42 172 55 212 68 209 8 -3 51 -14 95 -26z m1480 -1108 c10 -32
19 -73 22 -90 l6 -33 -962 0 c-762 0 -961 3 -961 13 0 6 4 28 9 47 6 19 15 54
21 78 l11 42 919 0 919 0 16 -57z"/>
<path d="M3393 5429 c-12 -4 -24 -17 -28 -28 -7 -22 32 -147 70 -222 22 -42
29 -49 55 -49 47 0 59 37 32 98 -11 26 -31 80 -44 121 -24 78 -43 96 -85 80z"/>
<path d="M3552 5028 c-21 -21 -14 -42 39 -118 226 -328 575 -602 963 -756 74
-30 99 -21 94 34 -3 36 -4 37 -108 83 -366 161 -697 427 -885 712 -30 46 -43
57 -64 57 -15 0 -32 -5 -39 -12z"/>
<path d="M3765 2413 c-124 -28 -205 -124 -205 -243 0 -217 264 -324 418 -169
45 45 63 81 69 145 14 129 -87 250 -222 267 -22 3 -49 3 -60 0z m106 -118
c122 -64 71 -265 -67 -265 -88 0 -140 65 -135 172 1 30 44 86 75 98 34 14 95
11 127 -5z"/>
</g>
</svg>
