<?xml version="1.0" standalone="no"?>
<!DOCTYPE svg PUBLIC "-//W3C//DTD SVG 20010904//EN"
 "http://www.w3.org/TR/2001/REC-SVG-20010904/DTD/svg10.dtd">
<svg version="1.0" xmlns="http://www.w3.org/2000/svg"
 width="1600.000000pt" height="1689.000000pt" viewBox="0 0 1600.000000 1689.000000"
 preserveAspectRatio="xMidYMid meet">

<g transform="translate(0.000000,1689.000000) scale(0.100000,-0.100000)"
fill="#72286E" stroke="none">
<path d="M10858 12943 c-19 -23 -38 -78 -38 -114 0 -34 -6 -38 -68 -46 -45 -5
-51 -3 -96 36 -27 23 -57 41 -71 41 -14 0 -64 -29 -117 -67 -134 -96 -145
-114 -117 -193 25 -71 24 -89 -10 -128 -28 -33 -30 -34 -85 -27 -49 6 -61 4
-91 -16 -28 -19 -39 -36 -51 -79 -8 -30 -24 -83 -35 -117 -11 -34 -18 -71 -15
-81 9 -28 76 -92 103 -98 20 -5 23 -12 23 -58 0 -46 -3 -54 -27 -68 -42 -25
-89 -71 -97 -92 -4 -11 2 -47 12 -80 11 -34 25 -83 31 -111 20 -84 55 -109
146 -106 55 1 62 -1 88 -28 32 -35 34 -59 8 -126 -16 -43 -17 -55 -6 -81 14
-33 69 -84 90 -84 8 0 18 -6 22 -13 4 -7 26 -27 48 -45 59 -48 102 -45 167 12
l50 43 46 -17 c44 -17 47 -21 54 -61 15 -105 40 -119 205 -119 128 0 158 10
173 58 6 20 15 46 20 57 4 11 10 27 13 35 2 8 25 22 49 31 l45 17 48 -44 c40
-37 54 -44 89 -44 34 0 49 8 86 40 25 22 53 42 63 46 10 3 37 23 59 44 49 45
54 80 19 148 -12 23 -21 45 -21 51 0 5 14 25 32 45 30 34 34 36 98 36 77 0
105 15 115 63 4 17 23 70 41 116 39 96 41 114 16 139 -18 17 -86 72 -102 82
-4 3 -10 27 -11 54 -2 37 1 51 11 54 28 9 120 94 120 111 0 29 -86 251 -104
269 -12 13 -34 17 -86 17 -37 0 -70 2 -72 5 -1 3 -16 19 -32 37 l-29 32 27 66
c14 36 26 70 26 76 0 16 -107 119 -123 119 -7 0 -30 16 -52 35 -67 59 -97 58
-169 -6 -33 -29 -41 -31 -83 -25 -26 3 -48 8 -50 10 -3 2 -17 39 -32 83 l-28
78 -155 3 c-138 2 -156 1 -170 -15z m228 -196 c9 -29 21 -57 26 -64 12 -15
199 -83 230 -83 14 0 46 16 71 35 25 19 49 35 53 35 4 0 22 -11 40 -25 l33
-25 -19 -46 c-28 -64 -26 -79 25 -153 81 -120 93 -130 171 -133 l67 -3 14 -40
c13 -39 13 -40 -14 -60 -81 -57 -83 -62 -83 -192 1 -130 2 -134 71 -186 36
-27 36 -29 27 -67 l-10 -40 -65 0 c-60 0 -67 -2 -96 -33 -41 -42 -77 -86 -77
-93 0 -3 -11 -22 -25 -42 -30 -44 -31 -63 -4 -122 l20 -45 -28 -22 c-39 -31
-59 -29 -110 13 -50 41 -42 41 -198 -14 -101 -35 -101 -35 -109 -74 -14 -72
-27 -88 -71 -88 -40 0 -41 1 -59 53 -25 68 -38 83 -92 96 -24 6 -70 23 -101
37 -67 29 -97 26 -137 -16 -33 -35 -66 -38 -100 -9 l-24 21 21 59 c22 58 22
59 3 94 -11 20 -30 47 -42 60 -12 13 -32 42 -44 63 -25 45 -63 62 -136 62 -50
0 -50 0 -60 40 -11 39 -11 40 33 77 24 21 48 40 54 41 5 2 9 59 9 128 0 136 4
125 -73 189 l-36 30 13 40 14 40 61 2 c72 2 109 25 135 84 10 21 21 39 26 39
16 0 60 74 60 100 0 14 -9 44 -19 66 l-19 42 34 33 33 32 45 -41 c56 -51 81
-53 186 -12 41 17 80 30 86 30 19 0 54 45 70 93 14 40 19 46 47 49 48 5 55 0
73 -55z"/>
<path d="M10867 12424 c-52 -17 -90 -38 -117 -62 -22 -21 -52 -45 -65 -55 -14
-10 -35 -37 -46 -60 -12 -23 -34 -64 -48 -92 -23 -45 -26 -61 -26 -160 l0
-111 44 -88 c47 -95 133 -190 181 -202 14 -4 30 -10 35 -14 28 -22 140 -50
198 -50 59 0 91 8 212 54 50 19 124 87 174 161 41 62 49 82 61 158 11 72 11
103 1 170 -7 45 -19 95 -27 112 -25 55 -81 123 -138 170 -74 60 -153 87 -271
91 -76 3 -102 -1 -168 -22z m274 -160 c161 -81 219 -242 146 -404 -28 -63 -88
-118 -163 -152 -38 -16 -61 -20 -119 -16 -60 4 -79 10 -125 40 -60 38 -83 61
-124 123 -23 36 -26 49 -26 132 0 101 7 129 44 170 13 15 33 38 43 50 10 11
45 35 78 52 81 42 171 44 246 5z"/>
<path d="M8230 12699 l-25 -21 0 -544 c0 -299 -2 -544 -5 -544 -3 0 -18 19
-35 43 -16 23 -37 48 -47 55 -10 7 -18 19 -18 27 0 7 -26 43 -57 79 -48 56
-62 66 -89 66 -39 0 -74 -38 -74 -81 0 -28 25 -85 46 -104 7 -5 38 -46 70 -90
32 -44 63 -84 70 -90 7 -5 21 -24 31 -41 25 -44 91 -129 135 -176 32 -34 42
-39 65 -33 32 8 73 42 73 62 0 7 4 13 10 13 5 0 36 38 69 85 33 46 70 94 81
105 11 11 20 25 20 31 0 6 20 34 45 61 25 28 45 56 45 64 0 8 4 14 10 14 5 0
21 20 35 44 18 32 24 52 19 70 -8 34 -49 66 -83 66 -31 0 -71 -25 -71 -45 0
-8 -14 -29 -31 -47 -17 -18 -39 -44 -48 -58 -38 -59 -85 -120 -93 -120 -4 0
-8 247 -8 549 l0 549 -25 16 c-33 22 -85 20 -115 -5z"/>
<path d="M5765 12609 c-55 -10 -119 -18 -142 -18 -24 -1 -139 -19 -257 -41
-117 -21 -261 -44 -319 -50 -58 -6 -174 -24 -259 -40 -84 -17 -191 -35 -238
-40 -47 -6 -143 -19 -214 -30 -113 -17 -134 -24 -158 -47 l-28 -27 0 -226 0
-226 -90 -93 c-61 -63 -90 -100 -90 -116 0 -27 44 -119 74 -156 12 -14 37 -55
55 -91 66 -129 136 -179 179 -127 9 12 22 27 29 34 6 7 32 50 58 96 25 46 49
86 53 89 14 10 42 59 42 73 0 8 7 20 15 27 26 22 18 68 -22 121 -21 26 -42 48
-48 49 -5 0 -29 22 -52 49 l-43 50 0 161 c0 125 3 161 13 157 6 -3 55 -15 107
-26 147 -33 301 -70 343 -82 l37 -10 0 -282 c0 -236 2 -286 15 -304 15 -21 45
-32 255 -93 41 -12 89 -28 105 -35 46 -20 66 -26 120 -36 28 -5 97 -27 155
-49 58 -22 128 -44 155 -49 28 -6 93 -26 145 -45 52 -20 101 -36 108 -36 16 0
113 30 127 40 6 3 39 14 75 24 75 20 185 54 285 89 39 13 97 31 130 39 33 9
101 29 150 46 50 16 129 42 177 57 63 20 92 35 103 52 14 20 16 65 15 303 l0
279 42 12 c162 43 226 59 251 59 15 0 71 12 125 26 227 60 242 67 242 119 0
71 -44 91 -245 115 -111 14 -228 31 -455 70 -96 16 -215 34 -265 40 -49 6
-174 27 -277 46 -102 19 -204 34 -225 34 -32 0 -99 10 -238 34 -11 2 -65 -5
-120 -15z m255 -169 c63 -11 160 -25 215 -31 55 -6 167 -23 250 -39 82 -16
188 -33 235 -40 305 -39 372 -52 340 -63 -33 -12 -148 -37 -168 -37 -12 0 -57
-9 -100 -21 -42 -11 -117 -31 -167 -45 -49 -13 -103 -24 -120 -24 -16 0 -61
-9 -100 -20 -107 -30 -265 -68 -315 -75 -24 -3 -84 -17 -133 -31 -76 -21 -94
-23 -124 -13 -59 19 -187 49 -213 49 -14 0 -74 14 -135 31 -146 40 -179 48
-250 58 -53 8 -109 22 -310 77 -27 8 -61 14 -74 14 -30 0 -163 31 -174 40 -10
9 147 39 263 50 86 9 180 24 370 61 58 11 150 24 205 29 97 10 233 32 305 49
38 10 34 10 200 -19z m-920 -435 c52 -14 129 -32 170 -41 124 -25 201 -43 280
-65 102 -28 277 -62 320 -62 55 0 161 22 341 69 91 24 177 44 192 44 25 0 193
42 302 75 28 8 56 15 63 15 9 0 12 -52 12 -225 0 -208 -1 -225 -18 -225 -9 0
-42 -9 -72 -20 -70 -26 -189 -64 -260 -83 -30 -8 -95 -29 -145 -45 -49 -17
-126 -42 -170 -56 -44 -14 -107 -34 -139 -45 -84 -30 -135 -26 -251 16 -55 19
-128 42 -162 49 -33 8 -95 27 -137 43 -41 16 -99 34 -128 41 -29 7 -115 33
-190 59 l-138 46 0 223 c0 208 1 223 18 218 9 -3 60 -17 112 -31z m-827 -332
l37 -36 -33 -61 c-18 -33 -38 -61 -45 -64 -6 -2 -26 26 -43 63 l-32 66 33 34
c19 19 37 35 40 35 4 0 23 -16 43 -37z"/>
<path d="M6215 11195 c-16 -15 -25 -35 -25 -56 0 -28 25 -56 210 -242 116
-115 210 -211 210 -214 0 -2 -25 -1 -55 2 -70 9 -99 2 -113 -30 -18 -40 -14
-64 16 -94 24 -24 42 -29 150 -45 67 -10 122 -21 122 -25 0 -3 -21 -28 -45
-54 -25 -26 -45 -51 -45 -55 0 -4 -20 -30 -45 -57 -25 -28 -45 -55 -45 -61 0
-6 -14 -29 -31 -50 -17 -22 -44 -64 -60 -96 -15 -31 -39 -72 -52 -92 -14 -19
-32 -59 -42 -88 -9 -29 -25 -66 -35 -83 -20 -34 -35 -80 -84 -255 -56 -200
-59 -232 -60 -525 0 -297 6 -353 59 -530 18 -60 35 -124 38 -141 3 -17 24 -70
46 -118 23 -47 41 -92 41 -99 0 -6 15 -37 33 -67 18 -30 41 -73 51 -95 10 -22
36 -63 57 -91 22 -28 39 -54 39 -57 0 -4 27 -43 61 -87 33 -45 59 -84 56 -86
-2 -3 -58 -14 -123 -25 -69 -12 -126 -27 -136 -36 -27 -24 -23 -79 8 -110 24
-24 31 -25 90 -20 36 2 64 3 62 1 -2 -2 -94 -95 -205 -207 -186 -187 -203
-207 -203 -239 0 -23 8 -42 23 -56 27 -26 79 -29 97 -7 7 8 18 15 24 15 15 0
61 48 69 73 4 9 17 21 29 26 26 10 52 37 61 64 4 9 17 21 29 26 26 10 52 37
61 64 4 9 15 20 24 24 25 9 63 44 63 59 0 12 37 44 51 44 3 0 2 -22 -4 -50
-17 -88 27 -148 95 -130 41 12 49 31 74 175 9 55 18 102 20 104 2 2 27 -18 55
-43 29 -26 76 -63 104 -82 28 -18 60 -43 70 -54 10 -11 25 -20 34 -20 9 0 30
-12 46 -26 17 -15 64 -43 105 -62 41 -20 81 -42 87 -48 7 -7 34 -20 60 -29 27
-9 80 -30 119 -46 95 -40 159 -60 219 -69 28 -4 93 -17 145 -29 221 -50 513
-50 740 0 52 11 122 25 154 30 33 6 109 30 171 54 61 25 116 45 121 45 17 0
241 118 286 150 22 16 45 30 50 30 11 0 101 70 106 83 2 4 10 7 18 7 8 0 34
20 58 45 l44 45 22 -123 c13 -67 29 -132 37 -144 20 -33 85 -32 118 1 26 26
26 35 10 121 -7 39 -1 34 202 -169 116 -115 218 -213 227 -218 11 -6 29 -5 50
2 41 13 61 63 44 112 -11 30 -251 278 -270 278 -4 0 -8 6 -8 14 0 7 -20 29
-44 47 -25 19 -49 44 -55 57 -10 22 -10 22 58 22 62 0 70 2 85 25 25 38 20 72
-14 104 -25 23 -46 29 -119 39 -49 7 -101 12 -116 12 l-28 0 21 23 c12 13 22
28 22 33 0 5 20 31 45 57 25 27 45 53 45 58 0 5 6 17 14 26 45 55 86 115 86
124 0 6 20 42 45 79 25 37 45 75 45 83 0 8 20 54 45 103 25 48 45 97 45 109 0
11 11 48 24 81 35 91 63 223 81 384 20 191 19 313 -5 531 -16 143 -28 203 -56
287 -19 59 -41 130 -49 157 -7 28 -30 81 -49 118 -20 38 -36 73 -36 78 0 6
-19 43 -42 82 -24 40 -48 83 -54 97 -6 14 -18 33 -27 41 -8 9 -31 40 -50 70
-20 30 -58 81 -85 114 -28 33 -49 62 -46 66 3 6 133 25 227 33 58 5 76 24 77
85 0 67 -26 85 -113 76 l-68 -6 123 120 c68 66 128 126 133 132 6 6 24 24 40
40 134 130 151 166 99 214 -55 51 -67 45 -291 -177 -112 -112 -207 -205 -210
-208 -3 -3 -2 22 2 56 6 56 5 63 -20 92 -39 47 -108 42 -136 -10 -6 -11 -15
-68 -20 -125 -8 -107 -15 -143 -27 -143 -4 0 -29 21 -57 45 -27 25 -80 66
-117 91 -38 26 -68 50 -68 54 0 4 -19 15 -42 25 -24 9 -45 20 -48 24 -8 11
-109 71 -120 71 -5 0 -48 20 -94 45 -47 25 -93 45 -103 45 -17 0 -102 29 -148
50 -56 26 -161 46 -390 76 -154 20 -379 14 -570 -16 -165 -25 -424 -104 -531
-162 -39 -21 -77 -38 -84 -38 -7 0 -43 -20 -79 -44 -36 -23 -75 -46 -87 -50
-11 -3 -36 -20 -55 -37 -19 -17 -48 -38 -66 -45 -18 -8 -36 -20 -40 -27 -11
-18 -73 -67 -84 -67 -5 0 -9 15 -9 33 0 17 -7 75 -15 127 -17 108 -40 140 -99
140 -58 0 -71 -18 -68 -100 l2 -72 -33 29 c-17 16 -111 108 -209 206 -164 165
-179 177 -213 177 -25 0 -43 -7 -60 -25z m2450 -213 c165 -36 249 -60 330 -97
30 -14 60 -25 68 -25 8 0 51 -20 95 -45 44 -25 87 -45 95 -45 8 0 20 -7 27
-15 7 -8 30 -25 51 -37 22 -12 39 -25 39 -29 0 -4 11 -10 24 -13 13 -3 42 -24
65 -46 22 -22 46 -40 53 -40 6 0 27 -17 48 -37 20 -21 66 -67 103 -102 37 -34
67 -66 67 -69 0 -3 21 -29 48 -58 82 -91 132 -157 132 -175 0 -10 3 -19 8 -21
12 -5 82 -107 82 -119 0 -6 20 -47 45 -91 25 -45 48 -92 51 -107 4 -14 21 -64
39 -111 37 -97 45 -128 81 -332 19 -109 25 -184 26 -286 0 -148 -3 -176 -33
-352 -30 -173 -39 -208 -75 -295 -19 -44 -34 -87 -34 -97 0 -9 -16 -47 -36
-85 -20 -37 -49 -93 -64 -123 -15 -30 -42 -72 -59 -94 -17 -21 -31 -44 -31
-51 0 -35 -264 -328 -369 -411 -13 -10 -43 -36 -66 -56 -23 -21 -47 -38 -53
-38 -6 0 -23 -11 -39 -24 -38 -32 -232 -143 -280 -160 -21 -7 -69 -28 -107
-45 -38 -18 -90 -36 -115 -41 -25 -5 -73 -18 -106 -29 -146 -48 -216 -56 -490
-56 -235 1 -269 3 -355 23 -52 13 -115 30 -140 38 -25 9 -67 20 -93 25 -26 5
-89 27 -140 50 -51 23 -113 50 -139 62 -27 11 -48 23 -48 27 0 4 -19 15 -42
26 -50 22 -120 67 -138 89 -7 8 -18 15 -26 15 -7 0 -36 20 -64 45 -28 25 -54
45 -58 45 -10 0 -222 208 -222 218 0 4 -16 23 -35 42 -20 19 -45 52 -55 73
-11 20 -24 37 -29 37 -7 0 -96 142 -133 213 -65 125 -93 190 -137 327 -44 134
-54 177 -71 328 -22 188 -25 335 -10 452 6 41 15 112 20 158 5 49 26 133 50
202 22 65 40 125 40 132 0 8 20 55 45 106 25 50 45 96 45 100 0 5 20 40 45 78
25 37 45 74 45 81 0 7 3 13 8 13 4 0 21 21 37 45 17 25 33 45 38 45 4 0 7 7 7
15 0 8 20 35 45 61 25 25 45 49 45 52 1 12 126 142 137 142 6 0 25 17 41 38
17 21 47 47 66 57 20 11 36 23 36 27 0 4 39 33 88 64 48 32 93 64 100 71 7 7
25 16 40 19 15 4 34 12 42 19 26 21 134 75 152 75 9 0 29 7 45 15 91 48 121
57 348 105 184 39 179 38 405 36 177 -2 209 -5 345 -34z"/>
<path d="M8520 10699 c-73 -24 -105 -44 -169 -106 l-44 -43 -39 45 c-56 63
-96 85 -156 85 -43 0 -54 -4 -71 -26 -41 -52 -20 -100 62 -139 46 -22 86 -60
74 -71 -4 -4 -117 -25 -233 -44 -28 -4 -89 -25 -135 -45 -46 -21 -98 -42 -116
-47 -18 -5 -38 -15 -45 -22 -7 -7 -35 -25 -63 -41 -64 -37 -117 -75 -133 -97
-7 -10 -18 -18 -25 -18 -17 0 -227 -222 -233 -247 -4 -13 -9 -23 -13 -23 -4 0
-20 -22 -36 -50 -17 -27 -33 -50 -37 -50 -5 0 -8 -7 -8 -15 0 -8 -20 -54 -44
-102 -25 -49 -47 -101 -51 -118 -13 -59 -17 -65 -36 -65 -61 0 -239 -101 -239
-136 0 -8 -4 -14 -9 -14 -5 0 -24 -26 -42 -57 -31 -55 -33 -64 -34 -158 0
-100 0 -100 44 -180 24 -44 55 -93 69 -110 47 -57 135 -124 191 -145 l58 -21
46 -97 c26 -53 47 -100 47 -105 0 -4 30 -51 67 -104 69 -99 232 -271 317 -333
27 -19 54 -41 61 -47 8 -7 19 -13 25 -13 11 0 61 -29 70 -41 7 -9 88 -49 99
-49 6 0 34 -11 63 -24 127 -58 287 -86 489 -86 123 0 302 19 369 39 48 15 143
53 155 63 5 4 18 8 30 8 11 0 52 19 90 43 39 23 83 49 98 57 16 8 44 29 63 47
19 17 42 34 52 38 11 3 33 23 51 45 18 22 38 40 46 40 8 0 21 13 30 30 8 16
28 39 44 51 16 12 35 33 42 48 7 14 26 41 41 59 16 18 42 61 59 95 18 34 40
72 49 84 10 13 26 50 36 84 14 47 24 64 44 71 14 6 34 14 45 19 11 4 30 11 42
14 12 3 37 22 55 41 18 20 43 40 56 45 12 5 26 19 31 32 5 14 22 37 36 53 109
117 109 369 1 480 -20 20 -36 41 -36 45 0 12 -144 79 -184 86 -38 6 -49 25
-86 144 -9 30 -33 81 -54 112 -20 32 -36 62 -36 68 0 13 -34 63 -67 99 -13 14
-23 29 -23 35 0 11 -196 215 -208 215 -4 0 -29 21 -56 45 -27 25 -53 45 -59
45 -5 0 -40 20 -78 45 -38 25 -74 45 -80 45 -7 0 -39 13 -73 29 -91 42 -140
57 -254 77 -57 11 -108 22 -114 25 -17 11 11 44 58 70 24 13 44 26 44 30 0 3
24 11 53 17 63 13 122 3 200 -32 31 -14 67 -26 81 -26 25 0 60 34 71 71 8 25
-24 80 -56 96 -105 51 -274 65 -379 32z m25 -444 c55 -15 116 -30 135 -34 42
-10 114 -43 155 -71 17 -11 36 -20 43 -20 14 0 115 -69 120 -82 2 -4 9 -8 16
-8 16 0 176 -149 176 -164 0 -6 9 -17 19 -23 23 -14 161 -221 161 -240 0 -7
15 -45 33 -85 42 -92 53 -130 68 -248 17 -123 17 -261 1 -380 -16 -118 -26
-156 -67 -250 -18 -41 -39 -90 -45 -107 -7 -18 -23 -45 -35 -59 -13 -15 -29
-39 -36 -53 -21 -40 -134 -175 -190 -225 -59 -53 -234 -176 -250 -176 -6 0
-48 -18 -92 -40 -114 -56 -299 -93 -462 -94 -114 0 -266 22 -375 56 -60 18
-253 115 -285 142 -16 14 -35 26 -40 26 -11 0 -45 29 -157 136 -38 35 -68 68
-68 73 0 4 -18 28 -39 52 -21 25 -46 60 -55 79 -9 19 -30 58 -47 85 -18 28
-35 64 -39 80 -5 17 -25 77 -46 135 l-38 105 -4 190 c-3 165 -1 201 16 270 34
139 107 328 133 345 5 3 15 23 24 44 9 22 23 46 32 54 8 8 32 38 53 66 44 60
184 195 221 214 14 8 41 27 60 43 19 16 45 32 59 36 14 3 30 9 35 13 63 46
156 80 330 122 143 34 328 32 480 -7z m-1600 -992 c-14 -74 -17 -218 -6 -307
7 -54 10 -101 6 -104 -4 -4 -16 4 -27 18 -11 14 -34 42 -51 63 -44 53 -45 55
-52 109 -9 64 3 146 24 167 36 35 95 81 103 81 5 0 6 -12 3 -27z m2755 -10
c85 -73 102 -167 49 -269 -28 -52 -94 -134 -109 -134 -3 0 -2 44 1 97 3 54 4
153 1 221 -2 70 0 122 5 122 5 0 29 -17 53 -37z"/>
<path d="M7696 9240 c-27 -24 -36 -40 -36 -64 0 -36 6 -46 40 -69 58 -40 128
-10 136 58 6 49 -24 92 -72 101 -25 5 -38 0 -68 -26z"/>
<path d="M8767 9239 c-54 -44 -50 -105 9 -133 44 -20 69 -20 105 1 25 15 29
23 29 61 0 56 -12 77 -51 91 -45 16 -50 15 -92 -20z"/>
<path d="M7865 8588 c-28 -16 -35 -28 -35 -63 0 -23 12 -40 58 -82 31 -29 65
-53 74 -53 9 0 23 -7 32 -15 8 -9 46 -30 83 -48 67 -31 71 -31 215 -32 l146 0
98 50 c93 47 126 69 181 122 48 47 18 133 -47 133 -30 0 -97 -31 -115 -54 -34
-43 -182 -96 -265 -96 -33 0 -85 10 -127 24 -65 22 -99 41 -182 101 -36 27
-83 32 -116 13z"/>
<path d="M5498 9428 c-24 -26 -29 -38 -24 -62 3 -17 15 -38 25 -46 11 -8 50
-37 86 -65 37 -27 90 -68 118 -90 l52 -40 -557 -3 -558 -2 -15 -30 c-20 -38
-19 -58 5 -97 l20 -33 550 -2 551 -3 -53 -39 c-29 -22 -57 -45 -61 -53 -4 -7
-14 -13 -22 -13 -8 0 -38 -20 -67 -45 -29 -25 -59 -50 -65 -56 -25 -19 -15
-66 19 -94 25 -21 39 -26 64 -22 31 5 127 68 167 109 10 10 22 18 27 18 4 0
32 20 61 45 29 25 58 45 63 45 6 0 21 11 34 24 12 14 47 41 77 60 63 42 95 80
95 111 0 24 -35 75 -51 75 -6 0 -37 21 -69 48 -103 82 -162 126 -194 146 -17
10 -44 31 -61 47 -16 17 -40 32 -52 35 -13 4 -23 10 -23 14 0 14 -66 50 -90
50 -12 0 -35 -14 -52 -32z"/>
<path d="M10911 9393 c-52 -38 -110 -80 -130 -94 -20 -14 -49 -37 -65 -52 -16
-15 -35 -27 -43 -27 -7 0 -21 -9 -31 -21 -9 -11 -43 -39 -74 -60 -90 -62 -99
-96 -42 -159 20 -22 42 -40 49 -40 7 0 35 -20 61 -45 27 -25 54 -45 61 -45 7
0 20 -8 30 -18 10 -10 54 -45 98 -77 44 -32 82 -62 85 -66 10 -14 100 -59 119
-59 10 0 30 9 45 21 21 16 26 29 26 62 0 39 -4 44 -49 76 -28 18 -52 40 -55
47 -3 8 -12 14 -20 14 -8 0 -36 18 -62 41 -26 22 -59 46 -73 52 -20 9 95 13
529 17 305 3 561 9 568 13 6 5 19 21 27 37 17 33 5 84 -25 100 -12 6 -230 10
-570 10 l-552 0 52 43 c29 23 65 49 81 57 15 8 37 25 49 38 12 12 39 34 61 47
36 23 39 29 39 69 0 36 -5 48 -26 65 -15 12 -36 21 -48 21 -12 0 -63 -30 -115
-67z"/>
<path d="M11573 7742 c-52 -28 -203 -134 -203 -142 0 -4 -16 -15 -35 -24 -19
-9 -42 -24 -51 -34 -18 -18 -142 -108 -231 -167 -29 -19 -53 -39 -53 -44 0 -5
-16 -16 -35 -25 -19 -9 -40 -22 -47 -30 -8 -7 -53 -41 -101 -75 -48 -34 -87
-66 -87 -71 0 -6 -8 -10 -18 -10 -9 0 -40 -20 -67 -45 -28 -25 -60 -48 -72
-51 -13 -3 -23 -9 -23 -13 0 -7 -64 -55 -137 -103 -24 -15 -43 -32 -43 -37 0
-5 -17 -16 -37 -26 -21 -9 -42 -23 -48 -29 -12 -15 -177 -136 -210 -154 -13
-6 -38 -26 -56 -43 -18 -17 -50 -39 -71 -50 -21 -11 -38 -23 -38 -27 0 -4 -24
-23 -53 -42 -28 -19 -73 -52 -98 -72 -26 -21 -51 -38 -56 -38 -5 0 -35 -22
-68 -50 -33 -27 -65 -50 -72 -50 -7 0 -13 -3 -13 -7 0 -5 -20 -21 -45 -38 -24
-16 -45 -34 -45 -38 0 -5 -20 -49 -45 -98 -25 -49 -45 -95 -45 -102 0 -7 -20
-52 -45 -100 -25 -49 -45 -96 -45 -106 0 -9 -6 -25 -14 -36 -7 -11 -18 -36
-24 -56 -10 -39 -3 -60 31 -93 20 -19 23 -19 161 -2 249 32 370 46 405 46 24
0 44 8 62 26 15 14 48 40 73 57 160 110 216 152 216 159 0 4 20 17 45 29 25
12 45 25 45 30 0 5 31 29 68 54 38 24 81 56 95 69 14 13 34 27 44 30 10 4 38
24 62 46 25 22 50 40 56 40 7 0 20 9 30 20 9 10 55 44 101 75 46 31 84 61 84
66 0 6 15 16 34 24 19 8 42 22 52 32 17 18 90 72 217 159 37 25 67 50 67 54 0
4 20 17 45 29 25 12 45 25 45 30 0 5 28 27 63 49 34 23 77 55 94 71 18 16 41
32 51 35 11 4 39 24 63 46 24 22 49 40 56 40 7 0 20 8 30 19 10 10 52 42 93
71 41 29 86 64 99 76 13 13 29 24 35 24 24 0 126 110 142 152 42 114 44 175 9
273 -20 57 -35 80 -81 123 -79 75 -124 92 -237 92 -69 0 -100 -4 -124 -18z
m198 -158 c36 -13 53 -28 79 -67 29 -44 32 -55 28 -104 -4 -50 -30 -103 -54
-109 -10 -3 -94 99 -94 114 0 6 -14 25 -32 43 -17 19 -42 53 -54 76 l-23 42
27 10 c40 14 72 13 123 -5z m-251 -154 c19 -28 54 -75 78 -105 23 -29 42 -58
42 -63 0 -5 11 -21 25 -36 l24 -26 -42 -40 c-23 -22 -49 -40 -58 -40 -9 0 -24
-9 -35 -21 -10 -11 -52 -44 -94 -73 -41 -29 -84 -63 -94 -75 -11 -11 -25 -21
-32 -21 -7 0 -36 -20 -65 -45 -29 -25 -59 -45 -66 -45 -7 0 -13 -3 -13 -7 0
-5 -20 -21 -45 -38 -24 -16 -45 -33 -45 -37 0 -5 -6 -8 -13 -8 -7 0 -33 -17
-57 -37 -24 -21 -58 -47 -75 -58 -49 -31 -110 -75 -175 -127 -33 -27 -63 -48
-68 -48 -4 0 -32 -20 -61 -45 -29 -25 -58 -45 -65 -45 -7 0 -21 -9 -32 -21
-10 -11 -52 -44 -94 -73 -41 -29 -84 -63 -94 -75 -11 -11 -25 -21 -32 -21 -7
0 -36 -20 -65 -45 -29 -25 -59 -45 -66 -45 -7 0 -13 -3 -13 -7 0 -5 -17 -19
-37 -33 -20 -14 -41 -29 -47 -35 -6 -5 -23 -16 -37 -23 -14 -7 -42 -29 -63
-48 -20 -19 -42 -34 -48 -34 -5 0 -30 -18 -55 -40 -25 -22 -49 -40 -53 -40 -4
0 -15 15 -24 34 -8 18 -23 39 -32 47 -9 7 -38 45 -64 84 -26 38 -57 79 -69 89
-11 11 -21 24 -21 30 0 10 146 119 214 160 17 10 47 34 65 52 19 19 45 37 58
40 13 4 23 10 23 14 0 5 38 33 83 64 46 31 94 67 107 81 13 14 29 25 36 25 7
0 36 20 65 45 29 25 58 45 65 45 7 0 14 3 16 8 5 11 95 82 105 82 5 0 31 20
60 45 28 25 56 45 62 45 5 0 23 12 38 26 15 15 60 48 98 74 39 26 77 55 84 64
7 9 19 16 26 16 7 0 32 18 55 39 24 22 55 45 69 53 14 7 35 21 46 32 11 10 49
38 85 61 36 24 76 55 89 69 14 14 30 26 37 26 7 0 36 20 65 45 29 25 56 45 61
45 8 0 18 8 83 64 17 14 35 25 40 26 6 0 26 -23 45 -50z m-1926 -1504 c20 -22
36 -43 36 -47 0 -4 12 -22 26 -39 15 -17 25 -32 23 -34 -2 -2 -55 -10 -116
-18 l-112 -14 5 25 c4 14 25 64 48 111 28 59 43 81 48 70 3 -8 23 -33 42 -54z"/>
<path d="M5106 7660 c-37 -12 -61 -34 -106 -100 -21 -30 -49 -68 -64 -83 -14
-15 -26 -32 -26 -37 0 -4 -20 -32 -45 -61 -25 -29 -45 -58 -45 -65 0 -7 -3
-14 -7 -16 -12 -5 -83 -95 -83 -105 0 -5 -20 -31 -45 -58 -25 -28 -45 -55 -45
-61 0 -6 -18 -30 -40 -55 -22 -24 -43 -54 -46 -66 -3 -13 -9 -23 -13 -23 -4 0
-34 -37 -67 -82 -32 -46 -69 -93 -81 -105 -13 -12 -23 -27 -23 -34 0 -6 -20
-34 -45 -61 -25 -28 -45 -54 -45 -59 0 -9 -11 -23 -62 -84 -16 -18 -28 -36
-28 -41 0 -4 -19 -30 -42 -57 -48 -58 -62 -115 -52 -215 6 -57 11 -68 50 -110
24 -26 44 -50 44 -54 0 -5 6 -8 13 -8 7 0 37 -20 66 -45 29 -25 57 -45 61 -45
5 0 22 -12 37 -26 26 -24 48 -41 201 -149 31 -22 70 -52 86 -68 16 -15 34 -27
41 -27 7 0 20 -10 31 -21 10 -12 51 -43 89 -69 39 -26 83 -59 98 -74 15 -14
32 -26 37 -26 6 0 27 -15 47 -34 21 -18 52 -42 69 -52 17 -11 75 -53 129 -94
54 -41 112 -83 129 -94 17 -10 44 -31 61 -47 16 -17 40 -32 52 -35 13 -4 23
-10 23 -15 0 -4 38 -35 85 -68 46 -33 94 -70 105 -81 11 -11 25 -20 31 -20 6
0 34 -20 61 -45 78 -70 179 -91 292 -61 39 10 60 24 102 71 30 32 54 64 54 70
0 6 20 34 45 61 25 27 45 57 45 66 0 10 4 18 9 18 5 0 38 39 72 88 35 48 71
93 81 100 10 7 18 19 18 27 0 7 20 37 45 66 25 29 45 57 45 61 0 5 11 21 25
36 14 15 46 57 71 93 24 37 54 75 64 84 11 10 20 23 20 30 0 6 18 31 40 55 22
24 43 54 46 67 4 13 10 23 15 23 4 0 29 30 55 68 26 37 59 79 72 94 14 15 35
43 46 62 12 19 38 55 59 80 81 94 56 167 -60 180 -52 6 -70 13 -109 46 -53 43
-73 73 -74 107 0 15 -17 35 -50 60 -28 21 -75 57 -105 81 -30 23 -58 42 -62
42 -5 0 -30 20 -58 45 -27 25 -54 45 -59 45 -4 0 -29 17 -55 38 -25 20 -68 53
-96 72 -27 19 -56 42 -63 52 -7 10 -19 18 -27 18 -7 0 -37 20 -66 45 -29 25
-58 45 -65 45 -7 0 -14 3 -16 8 -5 12 -106 92 -116 92 -6 0 -32 20 -60 45 -27
25 -55 45 -60 45 -6 0 -24 12 -39 26 -15 15 -53 43 -83 64 -30 21 -67 49 -82
63 -15 14 -35 28 -45 31 -10 4 -38 24 -62 46 -25 22 -50 40 -56 40 -7 0 -20
10 -31 21 -10 12 -46 40 -79 62 -33 22 -73 52 -90 68 -25 23 -42 29 -95 33
-36 3 -78 1 -94 -4z m94 -165 c7 -8 18 -15 25 -15 6 0 31 -18 56 -41 24 -22
53 -45 65 -52 34 -19 155 -107 197 -144 20 -18 42 -33 48 -33 6 0 34 -20 61
-45 28 -25 56 -45 63 -45 7 0 15 -3 17 -7 5 -12 106 -93 115 -93 4 0 28 -18
53 -41 25 -22 57 -45 73 -51 15 -5 27 -14 27 -18 0 -5 43 -38 95 -75 52 -36
95 -70 95 -74 0 -5 10 -11 23 -15 12 -3 41 -24 65 -46 23 -22 47 -40 53 -40 7
0 28 -15 49 -32 45 -40 160 -125 209 -154 19 -12 36 -25 38 -30 2 -5 -13 -26
-32 -47 -19 -20 -42 -53 -51 -72 -9 -19 -20 -35 -24 -35 -4 0 -20 -19 -36 -42
-38 -56 -97 -132 -106 -136 -5 -2 -8 -9 -8 -16 0 -7 -17 -32 -37 -56 -21 -24
-47 -58 -58 -76 -11 -18 -55 -78 -97 -134 -43 -56 -78 -105 -78 -109 0 -4 -18
-26 -40 -50 -23 -24 -48 -57 -56 -74 -9 -16 -25 -40 -36 -51 -11 -12 -42 -54
-70 -93 -28 -40 -54 -73 -58 -73 -5 0 -13 -12 -18 -27 -5 -16 -26 -45 -45 -65
-20 -20 -48 -62 -62 -92 -14 -31 -30 -58 -34 -61 -5 -2 -21 8 -36 23 -15 15
-39 34 -55 42 -26 14 -50 32 -185 138 -30 23 -59 42 -64 42 -5 0 -31 20 -57
45 -27 25 -54 45 -61 45 -7 0 -20 8 -30 19 -10 10 -56 46 -104 79 -47 33 -91
67 -98 76 -8 9 -19 16 -25 16 -6 0 -33 20 -61 45 -27 25 -55 45 -61 45 -6 0
-18 7 -25 16 -7 9 -45 38 -84 64 -38 26 -81 59 -94 74 -14 14 -30 26 -37 26
-7 0 -36 20 -65 45 -29 25 -56 45 -60 45 -4 0 -25 15 -45 34 -21 19 -49 40
-63 48 -61 30 -119 96 -121 136 0 26 39 99 75 138 20 21 43 54 52 72 8 17 19
32 24 32 5 0 21 19 36 43 33 51 95 131 106 135 4 2 7 9 7 16 0 6 19 34 43 61
23 28 48 62 55 78 6 15 16 27 20 27 5 0 22 19 38 43 26 38 91 124 104 137 3 3
11 17 18 31 7 14 29 42 48 63 19 20 34 42 34 48 0 5 20 33 45 60 25 28 45 56
45 63 0 7 3 15 8 17 10 4 88 100 93 115 5 14 72 92 80 92 4 1 12 -6 19 -14z
m1582 -1249 c28 -24 64 -47 80 -50 33 -6 30 -19 -16 -68 -14 -15 -26 -32 -26
-37 0 -6 -20 -33 -45 -61 -25 -28 -45 -56 -45 -64 0 -7 -12 -23 -26 -37 -26
-24 -128 -162 -151 -204 -7 -12 -28 -38 -47 -59 -20 -20 -43 -52 -52 -71 -9
-19 -20 -35 -24 -35 -4 0 -29 -31 -55 -69 -25 -39 -57 -81 -70 -95 -13 -14
-26 -33 -29 -43 -3 -10 -24 -37 -46 -61 -22 -23 -40 -48 -40 -55 0 -8 -12 -24
-26 -38 -14 -13 -50 -58 -79 -99 -30 -41 -63 -85 -74 -97 -19 -23 -60 -43 -86
-43 -25 0 -95 75 -95 101 0 23 95 166 146 220 13 14 24 31 24 37 0 7 17 31 39
53 21 22 44 52 52 67 8 15 17 29 20 32 12 9 79 100 79 107 0 3 20 30 45 59 25
28 45 56 45 61 0 6 18 29 40 53 22 24 43 54 46 67 4 13 10 23 15 23 4 0 35 38
68 85 33 46 70 94 81 105 11 11 20 24 20 29 0 5 20 33 45 62 25 29 45 58 45
65 0 7 3 14 8 16 4 2 22 22 40 46 19 23 36 42 39 42 3 0 27 -20 55 -44z"/>
<path d="M5137 7303 c-17 -3 -31 -13 -37 -27 -4 -12 -29 -46 -54 -76 -25 -30
-46 -58 -46 -62 0 -5 -9 -18 -20 -30 -11 -12 -32 -40 -47 -62 -15 -23 -46 -64
-70 -93 -24 -28 -43 -55 -43 -60 0 -5 -18 -29 -40 -54 -22 -24 -43 -54 -46
-66 -3 -13 -9 -23 -13 -23 -4 0 -29 -30 -56 -67 -27 -38 -64 -85 -82 -106 -18
-20 -33 -42 -33 -48 0 -6 -20 -34 -45 -61 -25 -28 -45 -54 -45 -60 0 -5 -7
-16 -15 -24 -8 -9 -15 -31 -15 -49 0 -41 30 -75 116 -133 33 -22 71 -52 85
-66 13 -14 30 -26 36 -26 7 0 30 -16 51 -35 22 -19 50 -40 63 -47 13 -7 50
-33 82 -58 32 -25 82 -64 111 -86 29 -23 69 -48 90 -55 33 -12 41 -11 74 6 20
11 44 34 52 51 8 17 23 39 33 49 10 9 35 43 56 74 21 31 50 68 64 83 14 15 28
35 31 45 4 10 24 38 46 62 22 25 40 49 40 54 0 5 20 32 45 60 25 29 45 55 45
60 0 10 71 100 83 105 4 2 7 10 7 17 0 7 20 35 45 63 25 27 45 55 45 61 0 6 9
20 20 31 52 52 80 103 80 146 0 41 -3 46 -50 81 -27 20 -50 40 -50 44 0 4 -10
10 -22 13 -13 3 -43 24 -67 46 -25 22 -48 40 -53 40 -5 0 -36 21 -68 48 -111
88 -162 127 -189 141 -14 8 -46 31 -70 53 -24 21 -50 38 -57 38 -7 0 -18 2
-26 3 -7 2 -26 2 -41 0z m92 -220 c20 -14 44 -35 54 -45 10 -10 23 -18 30 -18
7 0 34 -20 61 -45 26 -25 54 -45 61 -45 7 0 18 -7 25 -15 7 -8 48 -40 92 -71
43 -30 81 -61 84 -68 3 -8 -6 -26 -20 -40 -13 -15 -46 -58 -71 -97 -26 -38
-52 -69 -57 -69 -5 0 -15 -15 -23 -32 -7 -18 -30 -50 -49 -72 -20 -21 -42 -49
-49 -61 -23 -44 -140 -200 -159 -213 -10 -7 -18 -19 -18 -27 0 -7 -20 -37 -45
-66 -25 -29 -45 -59 -45 -66 0 -27 -47 -12 -95 32 -28 25 -55 45 -61 45 -6 0
-26 14 -45 31 -19 17 -63 51 -99 76 -36 25 -69 52 -73 59 -4 8 -14 14 -22 14
-19 0 -75 49 -75 65 0 12 73 112 90 125 4 3 10 14 14 25 3 11 24 40 46 64 22
25 40 50 40 56 0 6 12 22 26 36 15 13 46 54 70 90 24 36 53 74 64 84 11 10 20
23 20 29 0 6 20 34 45 61 25 28 48 60 51 73 3 12 9 22 13 22 4 0 22 20 40 45
18 25 35 45 38 45 3 0 22 -12 42 -27z"/>
<path d="M5943 6590 c-18 -21 -33 -43 -33 -47 0 -5 -20 -33 -45 -62 -25 -29
-45 -59 -45 -67 0 -8 -6 -17 -14 -20 -12 -5 -92 -111 -176 -233 -14 -20 -37
-49 -52 -65 -16 -16 -28 -34 -28 -41 0 -7 -7 -18 -16 -26 -9 -7 -43 -51 -76
-98 -34 -48 -67 -90 -74 -94 -8 -4 -14 -14 -14 -20 0 -7 -13 -28 -28 -47 l-28
-33 35 -32 c20 -18 50 -39 67 -48 l31 -16 38 54 c21 30 41 55 45 55 5 0 12 12
18 28 5 15 23 41 40 57 16 17 38 44 49 61 26 44 113 161 151 204 17 21 32 42
32 49 0 6 18 30 40 53 22 24 43 51 46 61 3 10 16 29 30 44 13 14 41 51 61 81
20 31 51 72 70 91 42 45 42 68 0 86 -19 8 -45 25 -58 39 -13 14 -26 26 -29 26
-3 0 -20 -18 -37 -40z"/>
<path d="M6191 6438 c-5 -13 -25 -41 -45 -63 -20 -22 -39 -50 -42 -62 -4 -13
-9 -23 -13 -23 -7 0 -30 -30 -102 -130 -14 -19 -38 -48 -52 -62 -15 -15 -27
-32 -27 -39 0 -6 -18 -32 -41 -57 -23 -26 -48 -60 -56 -75 -13 -26 -13 -31 4
-49 10 -11 35 -29 56 -39 20 -11 37 -25 37 -32 0 -6 20 10 45 38 25 27 45 55
45 62 0 7 10 23 23 36 39 42 77 89 77 97 0 4 17 27 38 51 22 24 45 56 53 70 8
15 32 49 54 77 88 111 95 124 84 139 -6 7 -16 13 -21 13 -5 0 -29 16 -52 35
-24 19 -46 35 -50 35 -3 0 -10 -10 -15 -22z"/>
<path d="M5679 5747 c-20 -23 -40 -52 -43 -64 -4 -13 -11 -23 -15 -23 -4 0
-23 -21 -41 -47 l-33 -46 29 -24 c16 -14 41 -36 56 -49 14 -13 32 -24 40 -24
12 0 58 58 58 73 0 3 12 19 26 34 14 15 40 47 56 71 l30 44 -23 25 c-13 13
-39 31 -56 38 -18 8 -33 19 -33 24 0 19 -14 10 -51 -32z"/>
<path d="M8248 6829 c-10 -5 -35 -36 -57 -67 -21 -31 -50 -69 -64 -84 -14 -15
-28 -35 -31 -45 -4 -10 -26 -40 -51 -68 -25 -27 -45 -54 -45 -58 0 -5 -17 -29
-38 -55 -84 -102 -99 -148 -61 -196 32 -41 76 -36 124 15 22 23 51 59 65 79
46 70 105 149 110 150 3 0 4 -235 2 -522 -2 -348 0 -535 7 -559 9 -28 18 -38
47 -47 32 -9 84 -2 104 15 3 3 7 255 10 561 l5 557 40 -52 c22 -28 58 -76 80
-107 22 -30 43 -55 48 -56 4 0 7 -6 7 -14 0 -22 40 -46 76 -46 24 0 39 8 58
31 14 17 26 38 26 47 0 21 -36 82 -49 82 -5 0 -14 12 -19 28 -6 15 -27 45 -47
67 -20 22 -42 49 -48 61 -19 33 -109 154 -144 195 -18 20 -33 41 -33 46 0 5
-10 19 -23 31 -25 23 -70 28 -99 11z"/>
<path d="M0 440 l0 -440 8000 0 8000 0 0 440 0 440 -8000 0 -8000 0 0 -440z
m649 269 c52 -23 116 -88 149 -148 18 -36 22 -59 22 -137 0 -58 -5 -107 -14
-127 -16 -37 -72 -94 -83 -84 -4 4 3 41 15 82 40 134 20 222 -67 293 -51 42
-52 42 -132 42 -91 0 -141 -17 -167 -59 -9 -14 -19 -28 -23 -31 -12 -11 -29
-75 -29 -114 0 -64 46 -145 95 -167 52 -24 116 -24 161 0 53 29 63 48 64 120
0 55 -3 67 -25 86 -50 47 -130 40 -154 -12 -14 -30 -5 -87 16 -105 21 -17 49
3 45 31 -4 25 14 51 34 51 20 0 47 -46 40 -67 -4 -10 -18 -31 -32 -47 -63 -71
-194 2 -194 108 0 43 34 116 54 116 7 0 19 7 26 14 6 8 27 20 47 27 79 26 181
-37 218 -135 16 -42 17 -56 7 -103 -16 -79 -73 -143 -150 -172 -70 -25 -109
-26 -177 -3 -77 26 -103 49 -138 121 -66 137 -33 295 80 375 71 50 115 65 198
65 50 0 83 -5 114 -20z m609 -194 c2 -66 0 -134 -3 -152 -8 -46 -48 -90 -90
-97 -94 -18 -146 25 -153 126 -4 58 -4 59 40 103 48 48 85 58 108 30 19 -23
-2 -61 -37 -68 -43 -8 -58 -48 -37 -93 14 -28 22 -34 48 -34 52 0 56 11 56
160 0 75 3 140 7 144 4 4 19 6 33 4 l25 -3 3 -120z m1876 119 c35 -13 7 -69
-31 -62 -19 3 -28 30 -19 54 6 15 24 18 50 8z m-276 -66 c3 -26 6 -27 70 -30
l67 -3 3 -37 3 -38 -70 0 -71 0 0 -46 c0 -58 14 -84 45 -84 19 0 26 7 31 28 9
36 23 52 45 52 16 0 19 -8 19 -48 0 -26 -7 -57 -15 -68 -17 -25 -74 -36 -125
-26 -32 7 -36 12 -46 60 -15 66 -17 212 -4 247 13 35 44 30 48 -7z m-1408 -43
c19 -23 7 -49 -33 -68 l-37 -17 0 -84 c0 -88 -6 -102 -40 -91 -18 6 -20 15
-20 87 0 68 4 88 26 129 24 44 36 52 80 58 6 0 17 -6 24 -14z m258 -18 c12
-11 22 -28 22 -38 0 -27 -85 -113 -104 -106 -28 11 -30 36 -6 62 29 31 18 45
-18 24 -35 -19 -42 -69 -14 -99 15 -16 36 -23 83 -26 69 -5 99 -25 78 -51 -12
-14 -123 -17 -168 -4 -29 8 -71 83 -71 127 0 44 45 120 78 133 37 14 92 4 120
-22z m258 23 c17 -6 40 -28 57 -54 26 -41 28 -51 25 -128 -3 -81 -4 -83 -28
-83 -24 0 -25 2 -30 83 -4 68 -9 86 -24 98 -24 17 -37 18 -71 2 -20 -9 -25
-18 -25 -48 0 -38 18 -62 63 -84 12 -7 22 -20 22 -31 0 -17 -7 -20 -48 -19
-73 1 -90 23 -91 122 -1 88 11 112 69 138 37 16 44 17 81 4z m314 -10 c4 -7
19 -5 44 5 30 13 45 14 71 5 54 -18 65 -45 65 -165 l0 -106 -27 3 -28 3 -3 92
c-3 96 -11 111 -53 98 -17 -6 -19 -17 -19 -95 0 -82 -2 -89 -21 -95 -30 -10
-35 3 -38 97 -2 88 -9 100 -51 96 -24 -3 -25 -5 -28 -95 -3 -89 -4 -93 -27
-99 -39 -10 -45 2 -45 93 0 96 15 139 58 166 29 19 90 17 102 -3z m460 -6 c12
-32 -2 -54 -34 -54 -34 0 -46 -20 -46 -75 0 -29 -7 -66 -15 -83 -13 -25 -24
-32 -61 -38 -53 -8 -79 7 -64 37 6 10 23 22 38 25 35 9 42 20 42 69 1 52 33
123 62 135 43 17 68 12 78 -16z m394 10 c10 -27 7 -252 -4 -259 -6 -3 -19 -3
-30 0 -19 6 -20 15 -20 129 0 120 6 146 36 146 6 0 15 -7 18 -16z m237 -5 c4
-6 20 -3 41 7 43 20 75 14 111 -22 26 -26 27 -31 27 -136 l0 -109 -27 3 -28 3
-3 92 c-3 96 -11 111 -53 98 -16 -5 -19 -19 -21 -98 -3 -85 -5 -92 -24 -95
-27 -4 -34 19 -34 111 0 62 -2 68 -24 79 -47 21 -56 7 -56 -91 0 -94 -8 -109
-51 -96 -17 6 -19 17 -19 91 0 94 12 129 57 164 22 17 35 20 63 15 19 -4 38
-11 41 -16z m456 -16 c32 -39 34 -32 -28 -105 -40 -48 -69 -51 -69 -6 0 17 7
40 17 50 15 17 15 18 0 18 -27 0 -57 -37 -57 -69 0 -40 40 -71 91 -71 37 0 39
-2 39 -30 0 -29 -1 -30 -47 -29 -106 2 -134 30 -134 133 0 78 16 110 64 132
45 20 96 11 124 -23z m336 16 c24 -11 60 -75 51 -91 -8 -13 -62 -9 -71 5 -12
20 -42 28 -64 17 -36 -20 -19 -130 21 -130 20 0 40 13 40 27 0 10 10 13 38 11
30 -2 36 -6 34 -23 -8 -59 -33 -75 -112 -74 -77 2 -91 10 -106 59 -16 53 -18
116 -4 125 6 3 10 15 10 26 0 44 104 75 163 48z m272 -3 c36 -25 68 -103 61
-146 -10 -65 -35 -98 -81 -106 -44 -8 -44 -8 -97 0 -31 6 -40 13 -57 49 -20
42 -29 137 -13 137 4 0 13 13 20 29 7 15 22 33 35 39 32 15 109 14 132 -2z
m296 -2 c16 -15 20 -15 41 0 32 23 93 21 118 -4 18 -18 20 -33 20 -137 l0
-118 -38 0 -37 0 -3 98 c-3 104 -11 119 -51 98 -18 -10 -21 -23 -23 -104 l-3
-92 -35 0 -35 1 -3 96 c-3 101 -8 112 -51 101 -18 -5 -21 -14 -23 -101 l-3
-96 -35 -1 -35 0 -3 134 -3 134 45 -5 c24 -3 50 -2 58 3 22 14 80 10 99 -7z
m9997 -76 l-3 -93 -35 -1 c-45 -1 -60 5 -60 22 0 21 -47 17 -70 -6 -29 -29
-41 -16 -25 28 8 20 19 59 27 85 11 42 15 48 38 45 21 -3 27 -12 43 -73 27
-103 37 -103 37 -2 0 86 0 87 25 87 l26 0 -3 -92z m62 72 c0 -13 -7 -20 -20
-20 -13 0 -20 7 -20 20 0 13 7 20 20 20 13 0 20 -7 20 -20z m-2055 -80 c0 -69
-3 -85 -15 -85 -12 0 -16 18 -18 88 -3 81 -1 88 15 85 16 -3 18 -15 18 -88z
m150 65 c19 -18 25 -35 25 -67 0 -24 -4 -48 -8 -54 -13 -20 -71 -31 -130 -25
-5 1 -7 122 -2 169 0 1 20 2 45 2 35 0 52 -6 70 -25z m189 -62 c-1 -82 -2 -88
-22 -91 -21 -3 -22 1 -22 67 0 56 -3 71 -15 71 -8 0 -15 9 -15 20 0 16 7 20
38 20 l37 0 -1 -87z m166 67 c0 -16 -7 -20 -35 -20 -25 0 -35 -4 -35 -16 0 -8
5 -12 10 -9 18 11 51 -6 60 -30 13 -33 1 -64 -26 -71 -36 -9 -94 4 -94 22 0
24 31 30 46 9 17 -23 38 -8 32 21 -2 14 -12 19 -38 19 -22 0 -35 5 -34 13 1 6
2 28 3 47 l1 35 55 0 c48 0 55 -2 55 -20z m130 0 c0 -16 -7 -20 -35 -20 -26 0
-33 -3 -29 -15 4 -8 10 -12 15 -9 17 10 47 -7 53 -31 3 -13 2 -35 -4 -49 -8
-22 -16 -26 -49 -26 -30 0 -43 5 -51 19 -14 28 6 38 31 15 23 -20 43 -8 37 22
-3 15 -11 18 -36 16 -29 -2 -32 1 -32 25 0 62 9 73 56 73 37 0 44 -3 44 -20z
m130 1 c0 -14 -8 -21 -27 -23 -14 -2 -28 -9 -31 -17 -3 -9 1 -11 16 -6 35 10
62 -11 62 -49 0 -45 -26 -63 -87 -57 -47 4 -60 100 -18 145 30 33 85 37 85 7z
m150 2 c-1 -10 -9 -36 -20 -58 -11 -22 -19 -52 -20 -66 0 -27 -34 -47 -46 -27
-10 16 5 74 27 102 l20 26 -35 0 c-20 0 -36 2 -36 4 0 2 -3 11 -6 20 -5 14 3
16 55 16 52 0 61 -3 61 -17z m128 -5 c2 -12 -5 -18 -24 -20 -15 -2 -29 -8 -31
-14 -2 -7 5 -10 20 -7 47 9 76 -56 41 -91 -18 -18 -66 -21 -95 -6 -15 9 -19
22 -19 65 0 46 4 56 27 75 31 24 76 23 81 -2z m132 3 c0 -14 -8 -21 -27 -23
-14 -2 -28 -8 -30 -14 -2 -7 5 -10 20 -7 49 10 76 -58 39 -95 -28 -28 -80 -18
-94 17 -11 30 -3 107 13 127 6 8 27 14 45 14 27 0 34 -4 34 -19z m142 2 c21
-19 24 -49 6 -57 -10 -5 -10 -7 0 -12 6 -3 12 -21 12 -39 0 -36 -12 -45 -61
-45 -63 0 -89 39 -52 76 13 13 14 19 5 22 -18 6 -15 50 6 61 26 16 63 13 84
-6z m138 -2 c0 -14 -8 -21 -27 -23 -38 -4 -39 -23 -1 -23 28 0 33 -4 38 -31 4
-17 3 -40 -1 -51 -9 -25 -50 -34 -81 -19 -19 9 -24 21 -26 65 -4 70 15 101 63
101 28 0 35 -4 35 -19z m226 4 c34 -23 48 -68 35 -108 -19 -56 -80 -73 -138
-37 -30 18 -33 25 -33 65 0 37 5 51 26 70 31 29 78 33 110 10z m988 0 c19 -20
30 -75 21 -113 -9 -41 -54 -58 -96 -37 -27 14 -29 20 -29 70 0 42 5 60 20 75
24 24 63 26 84 5z m135 1 c18 -21 24 -76 14 -116 -7 -28 -15 -36 -41 -41 -51
-10 -67 9 -67 79 0 35 5 66 14 75 17 21 64 22 80 3z m150 -18 c15 -25 14 -29
-17 -67 -18 -22 -32 -42 -32 -45 0 -3 14 -6 30 -6 18 0 30 -5 30 -13 0 -17
-111 -18 -117 -1 -2 6 12 30 32 54 35 41 45 70 25 70 -6 0 -13 -7 -16 -15 -4
-8 -17 -15 -30 -15 -30 0 -31 23 -3 51 29 29 79 23 98 -13z m-901 -83 c3 -59
1 -67 -13 -61 -9 3 -20 6 -23 6 -5 0 -7 113 -3 127 1 1 9 0 19 -1 14 -2 18
-15 20 -71z m72 20 c1 -5 5 0 10 12 5 12 19 27 30 33 21 11 22 10 15 -22 -11
-57 -48 -150 -61 -155 -7 -2 -20 -3 -28 -1 -14 3 -14 6 -2 29 12 23 12 35 0
80 -18 69 -11 94 16 59 11 -14 20 -29 20 -35z m241 7 l1 -37 10 36 c7 27 16
38 34 42 28 5 29 -1 5 -68 -14 -40 -22 -50 -40 -50 -18 0 -26 9 -38 45 -8 25
-19 50 -25 57 -6 8 -2 13 14 15 33 6 38 1 39 -40z m-67 16 c26 -36 20 -48 -24
-48 -32 0 -38 -3 -33 -16 4 -12 14 -14 34 -10 33 6 39 -8 10 -23 -26 -14 -88
5 -96 29 -7 22 1 57 17 78 18 21 75 15 92 -10z m241 2 c0 -15 -7 -16 -37 -5
-10 4 -18 3 -18 -3 0 -6 14 -13 30 -17 26 -6 30 -11 30 -40 0 -28 -4 -33 -27
-38 -35 -7 -73 8 -73 29 0 9 6 14 13 11 6 -3 20 -8 30 -12 10 -4 17 -3 17 4 0
6 -11 13 -24 17 -25 6 -39 35 -29 60 8 21 88 15 88 -6z m-11337 -132 c32 -32
-3 -75 -45 -55 -37 16 -24 67 17 67 9 0 21 -5 28 -12z"/>
<path d="M4343 450 c-43 -17 -25 -130 20 -130 52 1 73 105 27 130 -21 11 -18
11 -47 0z"/>
<path d="M14590 436 c0 -9 5 -16 10 -16 6 0 10 4 10 9 0 6 -4 13 -10 16 -5 3
-10 -1 -10 -9z"/>
<path d="M12810 426 c0 -41 4 -56 14 -56 23 0 37 27 34 67 -2 31 -7 39 -25 41
-22 3 -23 0 -23 -52z"/>
<path d="M13440 416 c0 -22 11 -46 21 -46 5 0 9 14 9 30 0 20 -5 30 -15 30 -8
0 -15 -6 -15 -14z"/>
<path d="M13722 406 c2 -15 8 -26 13 -26 15 0 12 43 -3 48 -10 3 -13 -4 -10
-22z"/>
<path d="M13850 406 c0 -30 16 -42 34 -26 19 15 8 50 -15 50 -13 0 -19 -7 -19
-24z"/>
<path d="M14000 465 c0 -8 5 -15 10 -15 6 0 10 7 10 15 0 8 -4 15 -10 15 -5 0
-10 -7 -10 -15z"/>
<path d="M13994 405 c-9 -23 14 -45 26 -25 5 8 8 19 7 24 -6 17 -27 18 -33 1z"/>
<path d="M14127 423 c-8 -14 12 -55 25 -51 19 7 16 52 -4 56 -9 2 -18 -1 -21
-5z"/>
<path d="M14340 487 c-60 -30 -47 -119 18 -125 39 -4 57 8 71 48 8 26 6 33
-19 60 -32 34 -35 35 -70 17z m58 -24 c2 -8 -6 -13 -22 -13 -21 0 -26 -5 -26
-25 0 -27 9 -32 28 -13 8 8 15 9 23 1 12 -12 -14 -43 -36 -43 -37 0 -61 70
-33 98 16 16 60 12 66 -5z"/>
<path d="M15350 425 c0 -41 3 -56 13 -52 7 2 12 22 12 52 0 30 -5 50 -12 53
-10 3 -13 -12 -13 -53z"/>
<path d="M15482 428 c2 -39 7 -53 18 -53 11 0 16 14 18 53 3 47 1 52 -18 52
-19 0 -21 -5 -18 -52z"/>
<path d="M14975 440 c-3 -5 1 -10 10 -10 9 0 13 5 10 10 -3 6 -8 10 -10 10 -2
0 -7 -4 -10 -10z"/>
</g>
</svg>
