<svg width="188" height="361" viewBox="0 0 188 361" fill="none" xmlns="http://www.w3.org/2000/svg">
<path d="M128.5 98.4C136.833 108.6 141 123.767 141 143.9V178.5H46V143.9C46 123.767 50.1667 108.6 58.5 98.4C66.8333 88.1334 78.5 83 93.5 83C108.433 83 120.1 88.1334 128.5 98.4Z" fill="#C3996B"/>
<path fill-rule="evenodd" clip-rule="evenodd" d="M97.7 195H141V225.3C141 243.167 136.833 256.633 128.5 265.7C120.1 274.833 108.433 279.4 93.5 279.4C78.5 279.4 66.8333 274.833 58.5 265.7C50.1667 256.633 46 243.167 46 225.3V195.6L97.7 195ZM93.6 223C90 223 87.1 225.9 87.1 229.5V243.5C87.1 247 90 249.9 93.6 249.9C97.1 249.9 100 247 100 243.5V229.5C100 225.9 97.1 223 93.6 223Z" fill="#C3996B"/>
<path fill-rule="evenodd" clip-rule="evenodd" d="M187.1 98.6V261.9C187.1 293.3 178.6 317.8 161.9 334.8C145.1 351.7 122.1 360.3 93.4 360.3C64.9 360.3 42 351.7 25.2 334.8C8.5 317.8 0 293.3 0 261.9V98.6C0 67.2 8.5 42.7 25.2 25.7C42 8.70001 64.9 0.0999756 93.4 0.0999756C122.1 0.0999756 145.1 8.70001 161.9 25.7C178.6 42.7 187.1 67.2 187.1 98.6ZM156.8 145.7C156.8 119.9 151.133 100.167 139.8 86.5C128.467 72.8333 113.033 66 93.5 66C74.0333 66 58.6667 72.8333 47.4 86.5C36.0667 100.167 30.4 119.9 30.4 145.7V223.7C30.4 246.633 36.0667 264.167 47.4 276.3C58.6667 288.433 74.0333 294.5 93.5 294.5C113.033 294.5 128.467 288.433 139.8 276.3C151.133 264.167 156.8 246.633 156.8 223.7V145.7Z" fill="#C3996B"/>
</svg>
