<?xml version="1.0" standalone="no"?>
<!DOCTYPE svg PUBLIC "-//W3C//DTD SVG 20010904//EN"
 "http://www.w3.org/TR/2001/REC-SVG-20010904/DTD/svg10.dtd">
<svg version="1.0" xmlns="http://www.w3.org/2000/svg"
 width="1024.000000pt" height="1024.000000pt" viewBox="0 0 1024.000000 1024.000000"
 preserveAspectRatio="xMidYMid meet">

<g transform="translate(0.000000,1024.000000) scale(0.100000,-0.100000)"
fill="#72286E" stroke="none">
<path d="M1540 8260 c-13 -8 -17 -102 -30 -643 -12 -500 -18 -638 -29 -651
-18 -22 -58 -20 -70 3 -8 14 -40 1010 -41 1249 0 33 0 33 -42 30 l-43 -3 -7
-60 c-40 -337 -89 -1108 -90 -1425 -1 -259 6 -340 39 -405 23 -45 116 -158
220 -267 51 -53 93 -103 93 -110 0 -7 -5 -152 -10 -323 -5 -170 -23 -769 -40
-1330 -16 -561 -34 -1171 -40 -1355 -23 -691 -26 -856 -18 -899 28 -150 164
-247 296 -210 66 18 143 96 167 169 17 51 17 79 6 490 -6 239 -14 489 -16 555
-3 66 -14 428 -25 805 -12 377 -29 975 -40 1330 -11 354 -20 676 -20 715 l0
70 100 105 c175 183 222 255 240 361 30 187 -1 862 -78 1704 l-7 80 -38 6
c-21 3 -40 2 -44 -4 -3 -5 -12 -289 -21 -631 -8 -341 -19 -631 -23 -643 -11
-29 -64 -32 -77 -5 -5 9 -15 260 -22 557 -7 297 -15 585 -19 640 l-6 100 -30
0 -30 0 -7 -225 c-4 -124 -10 -413 -14 -643 -5 -346 -9 -420 -21 -432 -18 -18
-44 -19 -66 -2 -15 11 -18 76 -28 652 -7 352 -12 641 -13 641 -7 9 -44 11 -56
4z"/>
<path d="M8779 8261 c-71 -22 -114 -64 -163 -161 -120 -235 -199 -694 -251
-1460 -40 -591 -46 -1549 -11 -1698 21 -86 64 -154 124 -197 l43 -30 -6 -285
c-3 -157 -12 -514 -20 -795 -32 -1156 -37 -1380 -32 -1425 12 -102 94 -208
178 -230 95 -26 202 35 250 143 33 72 34 33 -16 1832 -8 286 -15 579 -16 650
l-2 130 31 33 c18 19 36 51 42 73 7 26 8 548 2 1686 -10 1844 -3 1695 -82
1727 -22 9 -41 16 -43 15 -1 0 -14 -4 -28 -8z"/>
<path d="M4920 7893 c-253 -21 -583 -109 -850 -227 -305 -136 -556 -311 -810
-565 -232 -233 -385 -446 -521 -725 -192 -395 -273 -751 -273 -1196 0 -300 33
-537 114 -799 265 -862 955 -1550 1815 -1809 375 -113 783 -145 1170 -92 481
67 968 281 1348 593 533 438 865 1030 974 1737 24 155 24 574 1 735 -82 561
-315 1059 -686 1465 -452 495 -1047 801 -1702 876 -114 13 -456 17 -580 7z
m565 -877 c121 -21 271 -61 370 -99 88 -34 331 -165 407 -220 412 -296 689
-746 763 -1242 19 -129 19 -418 0 -550 -105 -722 -644 -1329 -1350 -1520 -180
-48 -267 -59 -490 -59 -224 -1 -326 13 -520 69 -663 191 -1168 744 -1306 1431
-27 137 -37 427 -19 572 72 589 413 1105 920 1393 245 140 457 206 770 243 73
9 369 -3 455 -18z"/>
<path d="M4965 6924 c-762 -105 -1356 -662 -1505 -1410 -31 -154 -38 -417 -16
-579 102 -728 655 -1320 1378 -1475 529 -114 1081 27 1503 382 324 273 540
664 600 1086 23 160 16 449 -14 592 -132 635 -574 1131 -1185 1332 -232 76
-528 104 -761 72z"/>
</g>
</svg>
