<svg width="181" height="181" viewBox="0 0 181 181" fill="none" xmlns="http://www.w3.org/2000/svg">
<path d="M180.7 90.5C180.7 140.4 139.6 180.1 90.4 180.1C40.9 180.1 0.900024 140 0.900024 90.5C0.900024 41.5 40.5 0.299988 90.4 0.299988C127.1 0.299988 159.6 22.8 173.5 55.5C178.3 66.7 180.7 78.4 180.7 90.5Z" fill="#72286E"/>
<path d="M149.4 90.2C149.4 122.5 123.1 148.7 90.8 148.7C58.4 148.7 32.2 122.5 32.2 90.2C32.2 57.8 58.4 31.6 90.8 31.6C123.1 31.6 149.4 57.8 149.4 90.2Z" stroke="#C3996B" stroke-width="7.8"/>
</svg>
