<svg width="187" height="360" viewBox="0 0 187 360" fill="none" xmlns="http://www.w3.org/2000/svg">
<path fill-rule="evenodd" clip-rule="evenodd" d="M186.9 98.4V261.6C186.9 293 178.5 317.5 161.7 334.5C145 351.4 121.9 360 93.3 360C64.8 360 41.9 351.4 25.2 334.5C8.40001 317.5 0 293 0 261.6V98.4C0 67.1 8.40001 42.5 25.2 25.6C41.9 8.59998 64.8 0 93.3 0C121.9 0 145 8.59998 161.7 25.6C178.5 42.5 186.9 67.1 186.9 98.4ZM156.3 222.2C156.3 222.133 156.3 222.067 156.3 222L156.2 137.4H140.6V181.6H46.2L46.4 137.6C46.4 120.4 50.4 101.4 58.4 92.9C66.4 84.3 78.1333 80 93.6 80C114.467 80 131.267 87 144 101L151.3 88.8C144.7 81.3333 136.5 75.6333 126.7 71.7C116.967 67.7667 105.933 65.8 93.6 65.8C73.8667 65.8 58.4334 71.4667 47.3 82.8C36.2 94 30.7 116.1 30.6 137.4V137.9C30.6 137.967 30.6 138 30.6 138L30.8 224.1L46.2 224V195.3H140.6L140.5 222.7C140.4 239.8 136.4 258.7 128.5 267.2C120.433 275.8 108.7 280.1 93.3 280.1C72.4334 280.1 55.6333 273.1 42.9 259.1L35.6 271.3C42.2 278.7 50.3667 284.367 60.1 288.3C69.9 292.233 80.9667 294.2 93.3 294.2C113.033 294.2 128.467 288.567 139.6 277.3C150.7 266.1 156.2 243.8 156.3 222.5V222.2ZM93.4 249.8C97 249.8 99.9 246.8 99.9 243.3V229.3C99.9 225.8 97 222.8 93.4 222.8C89.9 222.8 87 225.8 87 229.3V243.3C87 246.8 89.9 249.8 93.4 249.8Z" fill="#72286E"/>
</svg>
