<svg width="180" height="181" viewBox="0 0 180 181" fill="none" xmlns="http://www.w3.org/2000/svg">
<path d="M179.8 90.6C179.8 140.4 138.7 180.1 89.5 180.1C40 180.1 0 140.1 0 90.6C0 41.5 39.6 0.299988 89.5 0.299988C126.2 0.299988 158.7 22.9 172.6 55.6C177.4 66.7 179.8 78.5 179.8 90.6Z" fill="#72286E"/>
<path fill-rule="evenodd" clip-rule="evenodd" d="M133.6 71.8C133.6 79.7 131.5 87.4 127.5 94.2L93.6 150.7C93 151.8 91.8 152.4 90.5 152.4C89.2 152.4 88.1 151.8 87.4 150.7L52.7 94.8C48.4 87.9 46.2 79.9 46.2 71.8C46.2 47.7 65.8 28 89.9 28C114 28 133.6 47.7 133.6 71.8ZM126.4 71.8C126.4 51.7 110 35.3 89.9 35.3C69.8 35.3 53.4 51.7 53.4 71.8C53.4 78.6 55.3 85.2 58.9 90.9L90.4 141.8L121.2 90.4C124.6 84.8 126.4 78.4 126.4 71.8Z" fill="white"/>
<path fill-rule="evenodd" clip-rule="evenodd" d="M111.8 71.8C111.8 83.6 102.3 93.6 89.9 93.6C77.7 93.6 68 83.8 68 71.8C68 59.7 77.8 49.9 89.9 49.9C101.9 49.9 111.8 59.7 111.8 71.8ZM104.5 71.8C104.5 63.7 97.9 57.2 89.9 57.2C81.9 57.2 75.3 63.7 75.3 71.8C75.3 79.8 81.8 86.4 89.9 86.4C98.1 86.4 104.5 79.7 104.5 71.8Z" fill="white"/>
</svg>
