<?xml version="1.0" encoding="UTF-8" standalone="no" ?>
<!DOCTYPE svg PUBLIC "-//W3C//DTD SVG 1.1//EN" "http://www.w3.org/Graphics/SVG/1.1/DTD/svg11.dtd">
<svg xmlns="http://www.w3.org/2000/svg" fill="red" xmlns:xlink="http://www.w3.org/1999/xlink" version="1.1" width="1080" height="1080" viewBox="0 0 1080 1080" xml:space="preserve">
<desc>Created with Fabric.js 5.2.4</desc>
<defs>
</defs>
<g transform="matrix(1 0 0 1 540 540)" id="db22e635-1cb8-44ba-94c0-ec85c2fc64b1"  >
<rect style="stroke: none; stroke-width: 1; stroke-dasharray: none; stroke-linecap: butt; stroke-dashoffset: 0; stroke-linejoin: miter; stroke-miterlimit: 4; fill: rgb(255,255,255); fill-rule: nonzero; opacity: 1; visibility: hidden;" vector-effect="non-scaling-stroke"  x="-540" y="-540" rx="0" ry="0" width="1080" height="1080" />
</g>
<g transform="matrix(1 0 0 1 540 540)" id="d21efbf2-df6d-4241-a498-98fb3fcd9d3d"  >
</g>
<g transform="matrix(1 0 0 1 60.85 441.8)" id="Artboard 8"  >
<path style="stroke: none; stroke-width: 1; stroke-dasharray: none; stroke-linecap: butt; stroke-dashoffset: 0; stroke-linejoin: miter; stroke-miterlimit: 4; fill: rgb(255,255,255); fill-rule: nonzero; opacity: 1;" vector-effect="non-scaling-stroke"  transform=" translate(-153.2, -407.6)" d="M 0 298.2 L 306.4 298.2 L 306.4 517 L 0 517 z" stroke-linecap="round" />
</g>
<g transform="matrix(1 0 0 1 495.05 91.05)" id="Artboard 9"  >
<path style="stroke: none; stroke-width: 1; stroke-dasharray: none; stroke-linecap: butt; stroke-dashoffset: 0; stroke-linejoin: miter; stroke-miterlimit: 4; fill: rgb(255,255,255); fill-rule: nonzero; opacity: 1;" vector-effect="non-scaling-stroke"  transform=" translate(-587.4, -56.85)" d="M 513.5 0.5 L 661.3 0.5 L 661.3 113.2 L 513.5 113.2 z" stroke-linecap="round" />
</g>
<g transform="matrix(1 0 0 1 494.6 234.3)" id="Artboard 10"  >
<path style="stroke: none; stroke-width: 1; stroke-dasharray: none; stroke-linecap: butt; stroke-dashoffset: 0; stroke-linejoin: miter; stroke-miterlimit: 4; fill: rgb(255,255,255); fill-rule: nonzero; opacity: 1;" vector-effect="non-scaling-stroke"  transform=" translate(-586.95, -200.1)" d="M 513.5 148.3 L 660.4 148.3 L 660.4 251.9 L 513.5 251.9 z" stroke-linecap="round" />
</g>
<g transform="matrix(1 0 0 1 495.05 365.45)" id="Artboard 11"  >
<path style="stroke: none; stroke-width: 1; stroke-dasharray: none; stroke-linecap: butt; stroke-dashoffset: 0; stroke-linejoin: miter; stroke-miterlimit: 4; fill: rgb(255,255,255); fill-rule: nonzero; opacity: 1;" vector-effect="non-scaling-stroke"  transform=" translate(-587.4, -331.25)" d="M 514.4 278.1 L 660.4 278.1 L 660.4 384.40000000000003 L 514.4 384.40000000000003 z" stroke-linecap="round" />
</g>
<g transform="matrix(1 0 0 1 495.05 494.8)" id="Artboard 12"  >
<path style="stroke: none; stroke-width: 1; stroke-dasharray: none; stroke-linecap: butt; stroke-dashoffset: 0; stroke-linejoin: miter; stroke-miterlimit: 4; fill: rgb(255,255,255); fill-rule: nonzero; opacity: 1;" vector-effect="non-scaling-stroke"  transform=" translate(-587.4, -460.6)" d="M 513.5 411.5 L 661.3 411.5 L 661.3 509.7 L 513.5 509.7 z" stroke-linecap="round" />
</g>
<g transform="matrix(1 0 0 1 99.15 799.95)" id="<Path>"  >
<path style="stroke: none; stroke-width: 1; stroke-dasharray: none; stroke-linecap: butt; stroke-dashoffset: 0; stroke-linejoin: miter; stroke-miterlimit: 4; fill: rgb(195,153,107); fill-rule: nonzero; opacity: 1;" vector-effect="non-scaling-stroke"  transform=" translate(-191.5, -765.75)" d="M 226.5 733.4 Q 239 748.6999999999999 239 778.9 L 239 813.5 L 144 813.5 L 144 778.9 Q 144 748.6999999999999 156.5 733.4 Q 169 718 191.5 718 Q 213.9 718 226.5 733.4 z" stroke-linecap="round" />
</g>
<g transform="matrix(1 0 0 1 99.15 906.4)" id="<Compound Path>"  >
<path style="stroke: none; stroke-width: 1; stroke-dasharray: none; stroke-linecap: butt; stroke-dashoffset: 0; stroke-linejoin: miter; stroke-miterlimit: 4; fill: rgb(195,153,107); fill-rule: evenodd; opacity: 1;" vector-effect="non-scaling-stroke"  transform=" translate(-191.5, -872.2)" d="M 195.7 830 L 239 830 L 239 860.3 Q 239 887.0999999999999 226.5 900.6999999999999 Q 213.9 914.4 191.5 914.4 Q 169 914.4 156.5 900.6999999999999 Q 144 887.0999999999999 144 860.3 L 144 830.5999999999999 z M 191.6 858 C 188 858 185.1 860.9 185.1 864.5 L 185.1 878.5 C 185.1 882 188 884.9 191.6 884.9 C 195.1 884.9 198 882 198 878.5 L 198 864.5 C 198 860.9 195.1 858 191.6 858 z" stroke-linecap="round" />
</g>
<g transform="matrix(1 0 0 1 99.2 849.4)" id="<Compound Path>"  >
<path style="stroke: none; stroke-width: 1; stroke-dasharray: none; stroke-linecap: butt; stroke-dashoffset: 0; stroke-linejoin: miter; stroke-miterlimit: 4; fill: rgb(195,153,107); fill-rule: evenodd; opacity: 1;" vector-effect="non-scaling-stroke"  transform=" translate(-191.55, -815.2)" d="M 285.1 733.6 L 285.1 896.9000000000001 C 285.1 928.3000000000001 276.6 952.8000000000001 259.90000000000003 969.8000000000001 C 243.10000000000002 986.7 220.10000000000002 995.3000000000001 191.40000000000003 995.3000000000001 C 162.90000000000003 995.3000000000001 140.00000000000003 986.7 123.20000000000003 969.8000000000001 C 106.50000000000003 952.8000000000001 98.00000000000003 928.3000000000001 98.00000000000003 896.9000000000001 L 98.00000000000003 733.6000000000001 C 98.00000000000003 702.2000000000002 106.50000000000003 677.7000000000002 123.20000000000003 660.7000000000002 C 140.00000000000003 643.7000000000002 162.90000000000003 635.1000000000001 191.40000000000003 635.1000000000001 C 220.10000000000002 635.1000000000001 243.10000000000002 643.7000000000002 259.90000000000003 660.7000000000002 C 276.6 677.7000000000002 285.1 702.2000000000002 285.1 733.6000000000001 z M 254.8 780.7 Q 254.8 742 237.8 721.5 Q 220.8 701 191.5 701 Q 162.3 701 145.4 721.5 Q 128.4 742 128.4 780.7 L 128.4 858.7 Q 128.4 893.1 145.4 911.3000000000001 Q 162.3 929.5000000000001 191.5 929.5000000000001 Q 220.8 929.5000000000001 237.8 911.3000000000001 Q 254.8 893.1 254.8 858.7 z" stroke-linecap="round" />
</g>
<g transform="matrix(1 0 0 1 331.5 849.4)" id="<Compound Path>"  >
<path style="stroke: none; stroke-width: 1; stroke-dasharray: none; stroke-linecap: butt; stroke-dashoffset: 0; stroke-linejoin: miter; stroke-miterlimit: 4; fill: rgb(196,154,107); fill-rule: evenodd; opacity: 1;" vector-effect="non-scaling-stroke"  transform=" translate(-423.85, -815.2)" d="M 517.3 733.6 L 517.3 896.8 C 517.3 928.1999999999999 508.9 952.6999999999999 492.09999999999997 969.6999999999999 C 475.4 986.5999999999999 452.29999999999995 995.1999999999999 423.69999999999993 995.1999999999999 C 395.19999999999993 995.1999999999999 372.29999999999995 986.5999999999999 355.5999999999999 969.6999999999999 C 338.7999999999999 952.6999999999999 330.3999999999999 928.1999999999999 330.3999999999999 896.8 L 330.3999999999999 733.5999999999999 C 330.3999999999999 702.3 338.7999999999999 677.6999999999999 355.5999999999999 660.8 C 372.2999999999999 643.8 395.19999999999993 635.1999999999999 423.69999999999993 635.1999999999999 C 452.29999999999995 635.1999999999999 475.3999999999999 643.8 492.0999999999999 660.8 C 508.8999999999999 677.6999999999999 517.3 702.3 517.3 733.5999999999999 z M 486.69999999999993 857.4 Q 486.69999999999993 857.3 486.69999999999993 857.1999999999999 L 486.5999999999999 772.5999999999999 L 470.9999999999999 772.5999999999999 L 470.9999999999999 816.8 L 376.5999999999999 816.8 L 376.7999999999999 772.8 C 376.7999999999999 755.5999999999999 380.7999999999999 736.5999999999999 388.7999999999999 728.0999999999999 Q 400.7999999999999 715.1999999999999 423.9999999999999 715.1999999999999 Q 455.2999999999999 715.1999999999999 474.39999999999986 736.1999999999999 L 481.6999999999999 723.9999999999999 Q 471.7999999999999 712.7999999999998 457.09999999999985 706.8999999999999 Q 442.49999999999983 700.9999999999999 423.99999999999983 700.9999999999999 Q 394.3999999999998 700.9999999999999 377.6999999999998 717.9999999999999 C 366.5999999999998 729.1999999999999 361.0999999999998 751.2999999999998 360.99999999999983 772.5999999999999 L 360.99999999999983 773.0999999999999 Q 360.99999999999983 773.1999999999999 360.99999999999983 773.1999999999999 L 361.1999999999998 859.3 L 376.5999999999998 859.1999999999999 L 376.5999999999998 830.4999999999999 L 470.9999999999998 830.4999999999999 L 470.89999999999975 857.8999999999999 C 470.7999999999997 874.9999999999999 466.7999999999997 893.8999999999999 458.89999999999975 902.3999999999999 Q 446.7999999999997 915.2999999999998 423.69999999999976 915.2999999999998 Q 392.39999999999975 915.2999999999998 373.2999999999998 894.2999999999998 L 365.9999999999998 906.4999999999999 Q 375.89999999999975 917.5999999999999 390.4999999999998 923.4999999999999 Q 405.19999999999976 929.3999999999999 423.69999999999976 929.3999999999999 Q 453.2999999999998 929.3999999999999 469.9999999999998 912.4999999999999 C 481.0999999999998 901.2999999999998 486.5999999999998 878.9999999999999 486.69999999999976 857.6999999999999 z M 423.79999999999995 885 C 427.4 885 430.29999999999995 882 430.29999999999995 878.5 L 430.29999999999995 864.5 C 430.29999999999995 861 427.4 858 423.79999999999995 858 C 420.29999999999995 858 417.4 861 417.4 864.5 L 417.4 878.5 C 417.4 882 420.29999999999995 885 423.79999999999995 885 z" stroke-linecap="round" />
</g>
<g transform="matrix(1 0 0 1 1082.45 147.8)" id="<Compound Path>"  >
<path style="stroke: none; stroke-width: 1; stroke-dasharray: none; stroke-linecap: butt; stroke-dashoffset: 0; stroke-linejoin: miter; stroke-miterlimit: 4; fill: rgb(114,40,110); fill-rule: nonzero; opacity: 1;" vector-effect="non-scaling-stroke"  transform=" translate(-1174.8, -113.6)" d="M 1264.7 114 C 1264.7 163.8 1223.6000000000001 203.5 1174.4 203.5 C 1124.9 203.5 1084.9 163.5 1084.9 114 C 1084.9 64.9 1124.5 23.700000000000003 1174.4 23.700000000000003 C 1211.1000000000001 23.700000000000003 1243.6000000000001 46.300000000000004 1257.5 79 C 1262.3 90.1 1264.7 101.9 1264.7 114 z" stroke-linecap="round" />
</g>
<g transform="matrix(1 0 0 1 1105.95 191.1)" id="<Path>"  >
<path style="stroke: none; stroke-width: 1; stroke-dasharray: none; stroke-linecap: butt; stroke-dashoffset: 0; stroke-linejoin: miter; stroke-miterlimit: 4; fill: rgb(195,153,107); fill-rule: nonzero; opacity: 1;" vector-effect="non-scaling-stroke"  transform=" translate(-1198.3, -156.9)" d="M 1206.1 156.9 C 1206.1 159.1 1204.3999999999999 160.8 1202.1999999999998 160.8 L 1194.3999999999999 160.8 C 1192.1999999999998 160.8 1190.4999999999998 159.10000000000002 1190.4999999999998 156.9 C 1190.4999999999998 154.8 1192.1999999999998 153 1194.3999999999999 153 L 1202.1999999999998 153 C 1204.3999999999999 153 1206.1 154.8 1206.1 156.9 z" stroke-linecap="round" />
</g>
<g transform="matrix(1 0 0 1 1082.44 147.85)" id="<Compound Path>"  >
<path style="stroke: none; stroke-width: 1; stroke-dasharray: none; stroke-linecap: butt; stroke-dashoffset: 0; stroke-linejoin: miter; stroke-miterlimit: 4; fill: rgb(195,153,107); fill-rule: evenodd; opacity: 1;" vector-effect="non-scaling-stroke"  transform=" translate(-1174.79, -113.65)" d="M 1201.6 72.5 Q 1202.1999999999998 75.2 1202.1999999999998 78.2 L 1202.1999999999998 93.8 C 1202.1999999999998 101.5 1198.9999999999998 108.5 1193.8999999999999 113.5 L 1193.8999999999999 122.6 C 1194.6999999999998 122.8 1207.3 125.8 1208.1 126 C 1218.3 128.6 1224.6 138.6 1222.6 148.9 L 1217.6999999999998 173.3 C 1217.2999999999997 175.20000000000002 1215.6999999999998 176.5 1213.8999999999999 176.5 L 1135.6999999999998 176.5 C 1133.8999999999999 176.5 1132.2999999999997 175.2 1131.8999999999999 173.3 L 1126.9999999999998 148.9 C 1124.8999999999999 138.6 1131.2999999999997 128.6 1141.3999999999999 126 L 1155.3 122.6 L 1155.3 113 C 1150.5 108 1147.5 101.3 1147.5 93.8 L 1147.5 78.2 C 1147.5 63.1 1159.8 50.800000000000004 1174.9 50.800000000000004 Q 1177.8000000000002 50.800000000000004 1180.5 51.400000000000006 C 1180.5 51.400000000000006 1197.9 53.7 1201.6 72.5 z M 1186.1 125.6 L 1186.1 118.8 C 1182.6 120.3 1178.8 121.2 1174.8999999999999 121.2 C 1170.6999999999998 121.2 1166.6999999999998 120.3 1163.1 118.60000000000001 L 1163.1 125.60000000000001 C 1163.1 127.4 1161.8999999999999 129 1160.1999999999998 129.4 L 1159.2999999999997 129.70000000000002 C 1162.8999999999996 134.4 1168.5999999999997 137.4 1174.8999999999996 137.4 C 1180.9999999999995 137.4 1186.6999999999996 134.5 1190.2999999999997 129.8 L 1189.0999999999997 129.4 C 1187.2999999999997 129 1186.0999999999997 127.4 1186.0999999999997 125.60000000000001 z M 1194.5 78.19999999999999 C 1194.5 76.79999999999998 1194.3 75.49999999999999 1194 74.19999999999999 C 1189 79.19999999999999 1182.1 82.1 1174.9 82.1 L 1155.3000000000002 82.1 L 1155.3000000000002 93.8 C 1155.3000000000002 104.6 1164.1000000000001 113.4 1174.9 113.4 C 1185.6000000000001 113.4 1194.5 104.60000000000001 1194.5 93.80000000000001 z M 1155.7 74.29999999999998 L 1174.9 74.29999999999998 C 1181 74.29999999999998 1186.8000000000002 71.39999999999998 1190.5 66.49999999999999 C 1186.9 61.69999999999999 1181.2 58.69999999999999 1174.9 58.69999999999999 C 1165.4 58.69999999999999 1157.5 65.39999999999999 1155.7 74.29999999999998 z M 1206.3 133.7 L 1198.3999999999999 131.79999999999998 C 1193.6 140.1 1184.6 145.2 1174.8999999999999 145.2 C 1164.9999999999998 145.2 1156.1 140 1151.1999999999998 131.7 L 1143.2999999999997 133.7 C 1137.1999999999998 135.2 1133.3999999999996 141.2 1134.6999999999998 147.39999999999998 L 1138.8999999999999 168.7 L 1210.6 168.7 L 1214.8999999999999 147.39999999999998 C 1216.1 141.2 1212.3 135.2 1206.3 133.7 z" stroke-linecap="round" />
</g>
<g transform="matrix(1 0 0 1 1081.55 434.4)" id="<Compound Path>"  >
<path style="stroke: none; stroke-width: 1; stroke-dasharray: none; stroke-linecap: butt; stroke-dashoffset: 0; stroke-linejoin: miter; stroke-miterlimit: 4; fill: rgb(114,40,110); fill-rule: nonzero; opacity: 1;" vector-effect="non-scaling-stroke"  transform=" translate(-1173.9, -400.2)" d="M 1263.8 400.6 C 1263.8 450.40000000000003 1222.7 490.1 1173.5 490.1 C 1124 490.1 1084 450.1 1084 400.6 C 1084 351.5 1123.6 310.3 1173.5 310.3 C 1210.2 310.3 1242.7 332.90000000000003 1256.6 365.6 C 1261.3999999999999 376.70000000000005 1263.8 388.5 1263.8 400.6 z" stroke-linecap="round" />
</g>
<g transform="matrix(1 0 0 1 1081.55 434.4)" id="<Compound Path>"  >
<path style="stroke: none; stroke-width: 1; stroke-dasharray: none; stroke-linecap: butt; stroke-dashoffset: 0; stroke-linejoin: miter; stroke-miterlimit: 4; fill: rgb(195,153,107); fill-rule: evenodd; opacity: 1;" vector-effect="non-scaling-stroke"  transform=" translate(-1173.9, -400.2)" d="M 1217.6 381.8 C 1217.6 389.7 1215.5 397.40000000000003 1211.5 404.2 L 1177.6 460.7 C 1177 461.8 1175.8 462.4 1174.5 462.4 Q 1174.5 462.4 1174.5 462.4 C 1173.2 462.4 1172.1 461.79999999999995 1171.4 460.7 L 1136.7 404.8 C 1132.4 397.90000000000003 1130.2 389.90000000000003 1130.2 381.8 C 1130.2 357.7 1149.8 338 1173.9 338 C 1198 338 1217.6000000000001 357.7 1217.6000000000001 381.8 z M 1210.3999999999999 381.8 C 1210.3999999999999 361.7 1193.9999999999998 345.3 1173.8999999999999 345.3 C 1153.8 345.3 1137.3999999999999 361.7 1137.3999999999999 381.8 C 1137.3999999999999 388.6 1139.3 395.2 1142.8999999999999 400.90000000000003 L 1174.3999999999999 451.8 L 1205.1999999999998 400.40000000000003 C 1208.6 394.8 1210.3999999999999 388.40000000000003 1210.3999999999999 381.8 z" stroke-linecap="round" />
</g>
<g transform="matrix(1 0 0 1 1081.55 415.95)" id="<Compound Path>"  >
<path style="stroke: none; stroke-width: 1; stroke-dasharray: none; stroke-linecap: butt; stroke-dashoffset: 0; stroke-linejoin: miter; stroke-miterlimit: 4; fill: rgb(195,153,107); fill-rule: evenodd; opacity: 1;" vector-effect="non-scaling-stroke"  transform=" translate(-1173.9, -381.75)" d="M 1195.8 381.8 C 1195.8 393.6 1186.3 403.6 1173.8999999999999 403.6 C 1161.6999999999998 403.6 1151.9999999999998 393.8 1151.9999999999998 381.8 C 1151.9999999999998 369.7 1161.7999999999997 359.90000000000003 1173.8999999999999 359.90000000000003 C 1185.8999999999999 359.90000000000003 1195.8 369.70000000000005 1195.8 381.8 z M 1188.5 381.8 C 1188.5 373.7 1181.9 367.2 1173.9 367.2 C 1165.9 367.2 1159.3000000000002 373.7 1159.3000000000002 381.8 C 1159.3000000000002 389.8 1165.8000000000002 396.40000000000003 1173.9 396.40000000000003 C 1182.1000000000001 396.40000000000003 1188.5 389.70000000000005 1188.5 381.8 z" stroke-linecap="round" />
</g>
<g transform="matrix(1 0 0 1 1082.45 696.7)" id="<Compound Path>"  >
<path style="stroke: none; stroke-width: 1; stroke-dasharray: none; stroke-linecap: butt; stroke-dashoffset: 0; stroke-linejoin: miter; stroke-miterlimit: 4; fill: rgb(114,40,110); fill-rule: nonzero; opacity: 1;" vector-effect="non-scaling-stroke"  transform=" translate(-1174.8, -662.5)" d="M 1264.7 662.9 C 1264.7 712.6999999999999 1223.6000000000001 752.4 1174.4 752.4 C 1124.9 752.4 1084.9 712.4 1084.9 662.9 C 1084.9 613.8 1124.5 572.6 1174.4 572.6 C 1211.1000000000001 572.6 1243.6000000000001 595.2 1257.5 627.9 C 1262.3 639 1264.7 650.8 1264.7 662.9 z" stroke-linecap="round" />
</g>
<g transform="matrix(1 0 0 1 1082.45 696.05)" id="<Compound Path>"  >
<path style="stroke: none; stroke-width: 1; stroke-dasharray: none; stroke-linecap: butt; stroke-dashoffset: 0; stroke-linejoin: miter; stroke-miterlimit: 4; fill: rgb(195,153,107); fill-rule: evenodd; opacity: 1;" vector-effect="non-scaling-stroke"  transform=" translate(-1174.8, -661.85)" d="M 1234.6 635.7 L 1234.6 703 C 1234.6 711.2 1227.8999999999999 717.9 1219.6 717.9 L 1129.8999999999999 717.9 C 1121.6999999999998 717.9 1114.9999999999998 711.1999999999999 1114.9999999999998 703 L 1114.9999999999998 635.7 C 1114.9999999999998 627.4000000000001 1121.6999999999998 620.7 1129.8999999999999 620.7 L 1152.3999999999999 620.7 L 1152.3999999999999 613.3000000000001 C 1152.3999999999999 609.1 1155.6999999999998 605.8000000000001 1159.8 605.8000000000001 L 1189.7 605.8000000000001 C 1193.9 605.8000000000001 1197.2 609.1 1197.2 613.3000000000001 L 1197.2 620.7 L 1219.6000000000001 620.7 C 1227.9 620.7 1234.6000000000001 627.4000000000001 1234.6000000000001 635.7 z M 1159.8 620.7 L 1189.7 620.7 L 1189.7 615.5 C 1189.7 613.4 1188.1000000000001 613.3 1186 613.3 L 1163.6 613.3 C 1161.5 613.3 1159.8 613.4 1159.8 615.5 z M 1227.1 661.8000000000001 L 1187.1999999999998 661.8000000000001 L 1187.1999999999998 670.6 C 1187.1999999999998 674.6 1183.8999999999999 677.9 1179.8999999999999 677.9 L 1169.6999999999998 677.9 C 1165.6999999999998 677.9 1162.3999999999999 674.6 1162.3999999999999 670.6 L 1162.3999999999999 661.8000000000001 L 1122.4999999999998 661.8000000000001 L 1122.4999999999998 702.9000000000001 C 1122.4999999999998 707.1000000000001 1125.7999999999997 710.4000000000001 1129.8999999999999 710.4000000000001 L 1219.6 710.4000000000001 C 1223.8 710.4000000000001 1227.1 707.1000000000001 1227.1 702.9000000000001 z M 1227.1 635.7 C 1227.1 631.5 1223.8 628.2 1219.6 628.2 L 1129.8999999999999 628.2 C 1125.8 628.2 1122.4999999999998 631.5 1122.4999999999998 635.7 L 1122.4999999999998 654.3000000000001 L 1162.3999999999999 654.3000000000001 L 1162.3999999999999 653.1 C 1162.3999999999999 649 1165.6999999999998 645.7 1169.6999999999998 645.7 L 1179.8999999999999 645.7 C 1183.8999999999999 645.7 1187.1999999999998 649 1187.1999999999998 653.1 L 1187.1999999999998 654.3000000000001 L 1227.1 654.3000000000001 z" stroke-linecap="round" />
</g>
<g transform="matrix(1 0 0 1 1082.45 955.4)" id="<Compound Path>"  >
<path style="stroke: none; stroke-width: 1; stroke-dasharray: none; stroke-linecap: butt; stroke-dashoffset: 0; stroke-linejoin: miter; stroke-miterlimit: 4; fill: rgb(114,40,110); fill-rule: nonzero; opacity: 1;" vector-effect="non-scaling-stroke"  transform=" translate(-1174.8, -921.2)" d="M 1264.7 921.5 C 1264.7 971.4 1223.6000000000001 1011.1 1174.4 1011.1 C 1124.9 1011.1 1084.9 971 1084.9 921.5 C 1084.9 872.5 1124.5 831.3 1174.4 831.3 C 1211.1000000000001 831.3 1243.6000000000001 853.8 1257.5 886.5 C 1262.3 897.7 1264.7 909.4 1264.7 921.5 z" stroke-linecap="round" />
</g>
<g transform="matrix(1 0 0 1 1082.45 955.35)" id="<Path>"  >
<path style="stroke: rgb(195,153,107); stroke-width: 7.8; stroke-dasharray: none; stroke-linecap: butt; stroke-dashoffset: 0; stroke-linejoin: miter; stroke-miterlimit: 4; fill: none; fill-rule: nonzero; opacity: 1;" vector-effect="non-scaling-stroke"  transform=" translate(-1174.8, -921.15)" d="M 1233.4 921.2 C 1233.4 953.5 1207.1000000000001 979.7 1174.8000000000002 979.7 C 1142.4 979.7 1116.2000000000003 953.5 1116.2000000000003 921.2 C 1116.2000000000003 888.8000000000001 1142.4000000000003 862.6 1174.8000000000002 862.6 C 1207.1000000000001 862.6 1233.4 888.8000000000001 1233.4 921.2 z" stroke-linecap="round" />
</g>
</svg>