<svg width="181" height="181" viewBox="0 0 181 181" fill="none" xmlns="http://www.w3.org/2000/svg">
<path d="M180.7 91C180.7 140.8 139.6 180.5 90.4 180.5C40.9 180.5 0.900024 140.5 0.900024 91C0.900024 41.9 40.5 0.700012 90.4 0.700012C127.1 0.700012 159.6 23.3 173.5 56C178.3 67.1 180.7 78.9 180.7 91Z" fill="#72286E"/>
<path d="M122.1 133.9C122.1 136.1 120.4 137.8 118.2 137.8H110.4C108.2 137.8 106.5 136.1 106.5 133.9C106.5 131.8 108.2 130 110.4 130H118.2C120.4 130 122.1 131.8 122.1 133.9Z" fill="#C3996B"/>
<path fill-rule="evenodd" clip-rule="evenodd" d="M117.6 49.5C118 51.3 118.2 53.2 118.2 55.2V70.8C118.2 78.5 115 85.5 109.9 90.5V99.6C110.7 99.8 123.3 102.8 124.1 103C134.3 105.6 140.6 115.6 138.6 125.9L133.7 150.3C133.3 152.2 131.7 153.5 129.9 153.5H51.6999C49.8999 153.5 48.3 152.2 47.9 150.3L43 125.9C40.9 115.6 47.3 105.6 57.4 103L71.3 99.6V90C66.5 85 63.5 78.3 63.5 70.8V55.2C63.5 40.1 75.8 27.8 90.9 27.8C92.8334 27.8 94.7 28 96.5 28.4C96.5 28.4 113.9 30.7 117.6 49.5ZM102.1 102.6V95.8C98.6 97.3 94.8 98.2 90.9 98.2C86.7 98.2 82.7 97.3 79.1 95.6V102.6C79.1 104.4 77.8999 106 76.1999 106.4L75.3 106.7C78.9 111.4 84.6 114.4 90.9 114.4C97 114.4 102.7 111.5 106.3 106.8L105.1 106.4C103.3 106 102.1 104.4 102.1 102.6ZM110.5 55.2C110.5 53.8 110.3 52.5 110 51.2C105 56.2 98.1 59.1 90.9 59.1H71.3V70.8C71.3 81.6 80.1 90.4 90.9 90.4C101.6 90.4 110.5 81.6 110.5 70.8V55.2ZM71.6999 51.3H90.9C97 51.3 102.8 48.4 106.5 43.5C102.9 38.7 97.2 35.7 90.9 35.7C81.4 35.7 73.4999 42.4 71.6999 51.3ZM122.3 110.7L114.4 108.8C109.6 117.1 100.6 122.2 90.9 122.2C81 122.2 72.0999 117 67.1999 108.7L59.3 110.7C53.2 112.2 49.3999 118.2 50.6999 124.4L54.9 145.7H126.6L130.9 124.4C132.1 118.2 128.3 112.2 122.3 110.7Z" fill="#C3996B"/>
</svg>
