<?xml version="1.0" standalone="no"?>
<!DOCTYPE svg PUBLIC "-//W3C//DTD SVG 20010904//EN"
 "http://www.w3.org/TR/2001/REC-SVG-20010904/DTD/svg10.dtd">
<svg version="1.0" xmlns="http://www.w3.org/2000/svg"
 width="1024.000000pt" height="1024.000000pt" viewBox="0 0 1024.000000 1024.000000"
 preserveAspectRatio="xMidYMid meet">

<g transform="translate(0.000000,1024.000000) scale(0.100000,-0.100000)"
fill="#72286E" stroke="none">
<path d="M4374 7910 c-12 -5 -27 -23 -33 -41 -14 -41 -16 -924 -2 -961 28 -74
71 -65 311 64 107 58 265 140 350 183 146 74 158 78 221 78 60 0 76 -5 170
-53 57 -29 160 -85 229 -123 69 -39 152 -85 185 -104 214 -120 261 -134 292
-86 17 25 18 64 18 503 0 439 -1 478 -18 503 -13 21 -26 27 -52 27 -37 0 -83
-22 -450 -220 -280 -151 -312 -164 -385 -157 -63 5 -128 36 -382 178 -391 220
-408 228 -454 209z m406 -376 c143 -80 260 -150 260 -154 0 -4 -42 -31 -92
-60 -210 -120 -427 -240 -432 -240 -3 0 -6 135 -6 300 0 165 2 300 5 300 3 0
122 -66 265 -146z m1150 139 c5 -157 3 -573 -3 -573 -5 0 -39 17 -75 39 -107
62 -292 166 -357 201 -102 56 -101 55 -63 78 18 10 114 62 213 115 99 52 200
107 225 121 47 27 60 31 60 19z"/>
<path d="M2498 6947 c-92 -42 -121 -135 -75 -247 13 -30 345 -569 738 -1197
392 -629 741 -1187 775 -1240 33 -54 90 -145 125 -203 36 -58 177 -283 313
-500 258 -410 419 -668 496 -794 212 -344 274 -427 333 -441 38 -10 80 10 125
59 21 22 123 178 228 346 105 168 361 577 569 910 208 333 457 731 553 885 96
154 189 303 207 330 98 152 1104 1769 1129 1815 25 45 31 67 31 121 0 57 -4
71 -28 102 -53 70 -16 67 -857 67 -829 0 -796 2 -858 -59 -16 -16 -38 -49 -49
-73 -11 -24 -82 -259 -157 -523 -129 -450 -283 -988 -432 -1502 -138 -480
-197 -683 -308 -1070 -64 -221 -120 -412 -125 -425 -8 -21 -8 -22 -14 -3 -3
11 -35 121 -71 245 -35 124 -94 326 -130 450 -35 124 -94 326 -130 450 -111
384 -310 1079 -492 1715 -96 336 -184 632 -196 658 -28 61 -82 114 -128 127
-54 15 -1538 12 -1572 -3z m1337 -336 c64 -30 79 -55 125 -211 23 -80 59 -203
80 -275 65 -220 270 -930 455 -1575 97 -338 185 -642 195 -675 16 -55 17 -116
1 -114 -3 0 -148 227 -321 505 -388 623 -410 659 -474 761 -28 46 -112 181
-187 300 -75 120 -288 460 -473 755 -185 295 -336 539 -336 542 0 3 201 6 448
6 413 0 450 -2 487 -19z m3715 14 c0 -5 -1039 -1670 -1104 -1770 -18 -27 -160
-255 -316 -505 -394 -633 -371 -599 -382 -570 -6 17 25 140 133 514 77 270
183 637 234 816 51 179 109 380 129 448 20 67 51 175 70 240 242 829 221 773
296 813 33 17 66 18 488 19 248 0 452 -2 452 -5z"/>
<path d="M5133 6815 c-92 -40 -108 -203 -27 -274 55 -49 164 -53 226 -9 41 28
58 69 58 135 0 110 -54 163 -165 163 -33 -1 -75 -7 -92 -15z"/>
<path d="M5171 6290 c-78 -19 -116 -73 -116 -167 0 -97 51 -151 151 -160 114
-9 184 54 184 165 0 88 -39 141 -117 161 -47 12 -54 12 -102 1z"/>
<path d="M5145 5731 c-51 -23 -70 -46 -84 -98 -26 -95 14 -178 96 -205 92 -31
184 -3 219 64 24 46 23 136 -2 179 -40 69 -148 98 -229 60z"/>
<path d="M5154 5199 c-124 -36 -136 -256 -17 -305 19 -8 61 -15 94 -15 107 -1
159 55 159 168 0 41 -6 68 -20 91 -36 59 -131 86 -216 61z"/>
</g>
</svg>
